<?xml version="1.0" encoding="UTF-8"?> <svg xmlns="http://www.w3.org/2000/svg" width="59" height="59" viewBox="0 0 59 59" fill="none"><rect x="0.572266" y="0.489258" width="57.7139" height="57.7139" rx="14" fill="url(#paint0_linear_2571_15)"></rect><path d="M36.3225 29.4068H41.0948C42.8606 29.4068 44.2764 27.9751 44.2764 26.2253V19.8622C44.2764 18.0965 42.8447 16.6807 41.0948 16.6807H36.3225C34.5568 16.6807 33.141 18.1124 33.141 19.8622V21.453H23.6122V19.8622C23.6122 18.0965 22.1806 16.6807 20.4307 16.6807H15.6425C13.8926 16.6807 12.4609 18.1124 12.4609 19.8622V26.2253C12.4609 27.991 13.8926 29.4068 15.6425 29.4068H20.4148C22.1806 29.4068 23.5963 27.9751 23.5963 26.2253V24.6345H26.7779V35.7858C26.7779 38.4106 28.9095 40.5422 31.5343 40.5422H33.141V42.133C33.141 43.8988 34.5727 45.3146 36.3225 45.3146H41.0948C42.8606 45.3146 44.2764 43.8829 44.2764 42.133V35.7699C44.2764 34.0042 42.8447 32.5884 41.0948 32.5884H36.3225C34.5568 32.5884 33.141 34.0201 33.141 35.7699V37.3607H31.5343C30.6753 37.3607 29.9594 36.6448 29.9594 35.7858V24.6345H33.141V26.2253C33.141 27.9751 34.5727 29.4068 36.3225 29.4068Z" fill="white"></path><defs><linearGradient id="paint0_linear_2571_15" x1="5.89232" y1="53.7469" x2="63.6505" y2="4.46698" gradientUnits="userSpaceOnUse"><stop stop-color="#008CB3"></stop><stop offset="1" stop-color="#00F2FE"></stop></linearGradient></defs></svg> 