<?xml version="1.0" encoding="UTF-8"?> <svg xmlns="http://www.w3.org/2000/svg" width="59" height="59" viewBox="0 0 59 59" fill="none"><rect x="0.572266" y="0.608398" width="57.7139" height="57.7139" rx="14" fill="url(#paint0_linear_2570_5544)"></rect><path d="M41.7554 16.3955H21.4253C19.8279 16.3955 18.521 17.7024 18.521 19.2998V30.917C18.521 34.1262 21.1203 36.7256 24.3296 36.7256H33.0425C36.2517 36.7256 38.8511 34.1262 38.8511 30.917V26.5605H41.7554C43.3527 26.5605 44.6597 25.2536 44.6597 23.6562V19.2998C44.6597 17.7024 43.3527 16.3955 41.7554 16.3955ZM41.7554 23.6562H38.8511V19.2998H41.7554V23.6562ZM17.0688 42.5342H40.3032C41.1019 42.5342 41.7554 41.8807 41.7554 41.082C41.7554 40.2833 41.1019 39.6299 40.3032 39.6299H17.0688C16.2702 39.6299 15.6167 40.2833 15.6167 41.082C15.6167 41.8807 16.2702 42.5342 17.0688 42.5342Z" fill="white"></path><defs><linearGradient id="paint0_linear_2570_5544" x1="5.89232" y1="53.866" x2="63.6505" y2="4.58612" gradientUnits="userSpaceOnUse"><stop stop-color="#008CB3"></stop><stop offset="1" stop-color="#00F2FE"></stop></linearGradient></defs></svg> 