<?xml version="1.0" encoding="UTF-8"?> <svg xmlns="http://www.w3.org/2000/svg" width="118" height="107" viewBox="0 0 118 107" fill="none"><path d="M15.8461 23.1541C17.9275 22.7061 19.237 22.3271 20.5672 22.1686C21.7595 22.0307 22.9794 22.1686 24.1855 22.1203C27.3214 21.9825 28.3345 20.8246 27.9003 17.6818C27.6591 15.945 27.0733 14.2564 26.8183 12.5196C26.646 11.3549 26.5564 10.0936 26.8183 8.97711C27.3077 6.93705 28.8997 6.24092 30.8777 7.05419C31.8151 7.44015 32.6766 7.99843 33.5657 8.50156C34.6133 9.10117 35.5988 9.83174 36.6878 10.3142C39.3826 11.5134 40.5543 11.0447 41.6777 8.32925C42.167 7.13692 42.5116 5.87566 42.8149 4.6144C43.2353 2.84313 43.7591 1.05809 45.7302 0.575641C47.8599 0.0587337 49.1625 1.54053 50.3135 3.07058C51.2577 4.32494 52.0848 5.68956 53.1324 6.84744C54.8209 8.7083 56.9437 8.66008 58.6322 6.77853C59.4317 5.88945 60.0589 4.83493 60.817 3.9045C61.5821 2.98095 62.3126 1.98851 63.2431 1.25105C65.0281 -0.168719 66.9855 0.396415 67.5713 2.56743C67.9986 4.1595 68.1502 5.85499 68.1847 7.50909C68.3019 12.4783 69.3701 13.3329 74.3118 12.3818C75.7591 12.0992 77.2547 11.9752 78.7296 11.9407C81.4864 11.8787 82.8855 13.5879 82.217 16.2483C81.9482 17.3097 81.3899 18.3021 80.9282 19.3084C80.5767 20.0665 80.1494 20.7902 79.791 21.5414C78.702 23.8296 79.1431 24.7325 81.7001 25.1253C83.1612 25.3527 84.6637 25.339 86.1386 25.4699C86.8761 25.5319 87.6204 25.594 88.3303 25.7732C90.4807 26.3107 91.4731 27.9717 90.4944 29.9498C89.8741 31.211 88.7714 32.3413 87.648 33.2235C83.9538 36.1389 83.8918 37.0348 87.4412 40.3017C88.668 41.432 89.7983 42.6657 91.0389 43.7753C92.1623 44.7747 92.9067 45.9394 92.4862 47.435C92.0176 49.0753 90.7356 50.0471 89.1091 50.4124C87.9374 50.6743 86.7107 50.6605 85.5183 50.8466C84.4707 51.012 83.4438 51.2808 82.0447 51.584C82.982 54.0997 83.8987 56.2156 84.5465 58.4072C84.9876 59.8821 85.2771 61.4674 85.2426 62.9974C85.1944 65.1133 83.754 66.4366 81.6381 66.3952C79.8944 66.3607 78.1438 66.0506 76.4208 65.7197C73.8776 65.2304 72.7266 65.9472 72.4164 68.5455C72.2648 69.8275 72.3613 71.1438 72.2993 72.4395C72.127 75.8098 69.508 77.4708 66.5582 75.9476C64.842 75.0586 63.3189 73.8042 61.6785 72.7635C58.7563 70.9233 57.9568 71.1232 56.096 74.0592C55.1035 75.6237 54.1937 77.1744 52.3398 78.0015C50.6305 78.7665 49.2176 78.4771 48.0391 77.2503C46.8881 76.0579 45.937 74.6726 44.9238 73.3493C43.1388 71.0198 42.5806 70.8888 40.0787 72.3293C38.4591 73.2597 36.8394 74.135 34.8614 73.9489C32.718 73.749 31.567 72.9564 31.1259 70.8819C30.7813 69.2623 30.6503 67.5875 30.5676 65.9334C30.3746 62.1841 29.3064 61.1848 25.564 61.4329C24.4543 61.5018 23.3378 61.7017 22.242 61.5983C19.9262 61.3708 18.9406 60.082 19.4713 57.7801C19.7539 56.5533 20.4018 55.3747 21.0703 54.2858C22.9932 51.1499 22.7864 49.9231 19.7332 47.8692C18.9682 47.3592 18.0998 47.0077 17.3072 46.5391C16.2734 45.9257 15.1776 45.3743 14.2678 44.6024C12.724 43.2929 12.7998 41.9558 14.4194 40.6739C15.212 40.0398 16.1218 39.5435 16.9902 39.006C17.7759 38.5235 18.6029 38.0962 19.3817 37.6C22.8209 35.429 23.1448 33.6232 20.6843 30.3219C19.9676 29.357 19.0991 28.4955 18.4237 27.5031C17.6173 26.3108 16.9419 25.0357 15.8323 23.1473L15.8461 23.1541ZM89.4261 29.2743C88.4406 27.5582 87.0828 27.3239 85.6699 27.2205C84.1881 27.1102 82.6788 27.2067 81.2383 26.9241C77.744 26.2487 76.7791 23.9674 78.4746 20.8453C79.2672 19.3842 80.1769 17.9368 80.6732 16.3654C81.4037 14.0841 80.3079 12.9538 77.9853 13.3053C76.4277 13.5397 74.8769 13.8291 73.3193 14.0772C69.0945 14.7527 67.0268 13.0641 66.8063 8.72211C66.7511 7.61248 66.9372 6.46148 66.7167 5.38631C66.4892 4.26979 66.2067 2.65706 65.4347 2.25732C64.0219 1.53365 63.2362 3.17393 62.4298 4.11815C61.3477 5.3794 60.4931 6.84746 59.3421 8.0329C57.0264 10.4176 54.0214 10.2384 51.8642 7.6745C51.0303 6.68203 50.3411 5.57238 49.5485 4.54546C48.9833 3.81489 48.4388 3.02922 47.7289 2.46407C46.5573 1.52674 45.4615 1.82997 44.8205 3.21529C44.4759 3.96652 44.3311 4.80738 44.0761 5.59997C43.6144 7.00596 43.2697 8.47399 42.6288 9.79038C41.526 12.0717 39.7686 12.8505 37.3425 12.0303C35.7849 11.5065 34.372 10.5554 32.8971 9.79728C31.691 9.18388 30.4849 8.57738 29.4029 8.0329C27.8177 9.22523 27.6936 10.5416 28.0589 11.9821C28.4931 13.6844 29.0444 15.3592 29.3753 17.0822C30.1265 20.99 28.5137 23.1748 24.5852 23.5746C23.1103 23.7262 21.6148 23.6159 20.1261 23.7055C19.5334 23.74 18.9613 24.0019 18.0653 24.2431C18.665 25.1804 19.0509 25.8972 19.5334 26.5382C20.4776 27.7994 21.5803 28.9573 22.4349 30.2737C24.5025 33.4854 24.0408 35.9528 20.9945 38.2134C19.9538 38.9853 18.7546 39.5298 17.6863 40.2603C16.68 40.9495 15.7496 41.7559 14.3298 42.8656C15.722 43.3411 16.4801 43.5823 17.2245 43.858C19.0371 44.5197 20.9531 45.0021 22.6348 45.905C25.371 47.3799 25.8672 49.8266 24.2406 52.5007C23.7582 53.2933 23.1448 54.0032 22.6968 54.8096C21.7526 56.5119 22.1524 57.6284 23.9994 58.2418C25.0401 58.5864 26.1566 58.7588 27.2525 58.8966C31.4084 59.4066 32.7938 60.8815 32.8903 65.003C32.8972 65.3752 32.8902 65.7473 32.8971 66.1195C33.0212 70.6132 33.7449 71.1507 38.08 69.9584C42.2221 68.8212 44.2071 69.5242 46.6882 72.9978C47.3843 73.9765 48.0391 75.0103 48.873 75.8649C50.0654 77.0917 51.3059 77.0986 52.5396 75.9132C53.2633 75.2171 53.8974 74.3763 54.4005 73.501C57.0264 68.9453 60.7826 69.1727 64.0563 72.2121C64.8696 72.9634 65.7656 73.6664 66.7374 74.1971C68.3501 75.0793 69.4115 74.5416 69.7354 72.7428C69.9628 71.4678 70.0731 70.1652 70.1834 68.8694C70.4867 65.258 71.6307 64.0381 75.1664 63.8865C77.11 63.8038 79.0604 63.9898 81.0109 63.9623C83.8229 63.9209 84.2984 63.1146 83.1199 60.4956C82.858 59.9097 82.4789 59.379 82.1688 58.8139C81.583 57.7663 81.0247 56.698 80.4113 55.6573C78.5986 52.5903 81.962 47.2627 85.7182 48.2069C86.1593 48.3172 86.6417 48.3172 87.1035 48.2965C88.351 48.2345 89.9431 48.7445 90.46 47.0973C90.9562 45.519 89.7432 44.5472 88.6198 43.6857C87.2207 42.6106 85.7251 41.6525 84.4087 40.4878C82.4858 38.7854 82.3135 36.5662 83.9125 34.5468C84.5879 33.6853 85.5321 33.0443 86.3316 32.2724C87.3792 31.2731 88.3992 30.2461 89.3986 29.2537L89.4261 29.2743ZM23.386 60.0545C22.3246 59.1447 21.7113 58.6209 20.6912 57.7456C20.7877 59.696 21.5045 60.0889 23.386 60.0545Z" fill="white"></path><path d="M117.422 79.1104C111.24 78.3247 105.065 78.0836 98.5102 79.3172C97.9933 85.2513 99.158 91.2544 98.9444 97.5813C97.5522 96.4648 96.1186 95.5895 95.0366 94.3903C90.157 89.0213 84.7122 84.2795 79.1571 79.6481C77.6478 78.3868 76.483 76.6086 75.4561 74.8925C74.3258 73.004 74.884 71.7084 77.055 71.1639C78.6333 70.771 80.3357 70.7297 81.976 70.7572C83.444 70.7848 84.9052 71.157 86.3801 71.3155C89.3437 71.6325 90.9495 70.4195 90.7565 67.4352C90.5567 64.4096 89.7779 61.4184 89.2748 58.4135C89.13 57.5451 89.0404 56.6698 89.2127 55.6084C94.368 58.9993 98.7927 63.1552 103.507 66.9321C108.249 70.7297 112.956 74.5824 117.677 78.4075C117.594 78.6418 117.505 78.8762 117.422 79.1036V79.1104ZM96.9801 78.18C102.308 76.8499 107.477 77.1393 113.294 77.0911C111.943 75.7126 111.143 74.734 110.185 73.9483C104.017 68.9033 97.8072 63.8927 91.6043 58.889C91.4596 58.7719 91.1701 58.8201 90.7772 58.7719C90.9358 59.4749 91.0805 59.9987 91.177 60.5294C91.5767 62.7142 92.1694 64.8852 92.3004 67.0838C92.5278 70.9709 90.3982 72.9972 86.5386 72.7835C84.9672 72.6939 83.4165 72.3355 81.852 72.1701C79.9429 71.9634 78.0062 71.7566 76.1522 73.5141C77.1929 74.8029 78.0131 76.1675 79.1503 77.16C83.6784 81.1299 88.303 84.9894 92.9 88.8835C94.2715 90.0414 95.6637 91.1647 97.4694 92.6534C97.2834 89.7036 97.0766 87.4086 97.0077 85.1135C96.9319 82.8184 96.9939 80.5165 96.9939 78.1869L96.9801 78.18Z" fill="white"></path><path d="M16.6936 89.5665C13.6886 89.5665 11.0145 89.5114 8.33345 89.5803C5.74891 89.6492 3.12301 88.9945 0.311035 90.2489C0.676317 88.0985 1.9927 86.9199 3.15058 85.7C4.41872 84.363 5.96946 83.274 7.21004 81.9163C10.2701 78.5736 13.1924 75.1 16.2387 71.7435C18.2236 69.5519 20.2499 67.3808 22.414 65.3683C24.1095 63.7901 25.2742 63.7142 27.2522 64.5551C26.2667 67.8426 26.4252 71.2129 26.9421 74.59C27.5211 78.3462 28.8788 79.38 32.6005 78.6977C34.6888 78.3117 36.7496 77.7742 38.831 77.3331C39.6098 77.1677 40.4093 77.0918 41.1467 76.9816C41.8428 78.36 41.0778 79.1732 40.4851 79.9383C37.873 83.2947 35.2678 86.665 32.5523 89.9387C28.8305 94.4255 24.9985 98.8226 21.2285 103.268C20.3946 104.247 19.602 105.267 18.4924 106.114C16.28 100.725 16.983 95.2732 16.7073 89.5665H16.6936ZM18.9886 102.979C22.1797 100.746 37.9626 81.5786 38.6518 79.1181C36.4394 79.4972 34.2822 79.9934 32.0974 80.214C27.7692 80.6482 25.929 79.063 25.5224 74.6589C25.3294 72.5431 25.288 70.4134 25.1433 68.2906C25.1019 67.7186 24.9296 67.1534 24.8055 66.5263C24.4058 66.7054 24.1922 66.7399 24.0819 66.864C18.3821 72.9497 12.6755 79.0354 7.01704 85.1625C6.32783 85.9137 5.89364 86.9062 5.00455 88.3122H18.1547C18.644 93.3779 17.6584 98.2299 18.9817 102.992L18.9886 102.979Z" fill="white"></path><path d="M50.2861 19.3832C51.4922 19.2315 52.5743 19.011 53.6632 18.9697C54.6488 18.9352 55.6413 19.0937 56.875 19.1833C57.8812 23.7183 57.6951 28.6393 58.1844 33.4982C58.6531 38.1917 59.1356 42.8853 59.6525 47.5719C59.7076 48.0957 60.0315 48.585 60.2107 49.0399C61.9613 49.1571 63.6154 49.1433 65.2213 49.4052C67.7093 49.8049 69.4599 52.5893 68.7845 55.0015C68.6673 55.4358 68.116 55.8286 67.6749 56.0629C67.2889 56.2697 66.772 56.2766 66.3103 56.2766C59.108 56.2904 51.9058 56.2835 44.3865 56.2835C43.8765 54.6363 43.3527 52.9408 42.7875 51.1282C45.758 48.9434 49.1558 50.4183 52.6432 49.7153C52.9947 41.3276 51.189 32.9399 51.313 24.3455C50.803 25.0623 50.2861 25.7653 49.783 26.4889C48.2116 28.7289 45.9992 29.997 43.4009 30.6173C42.9805 30.7138 42.4705 30.4106 41.3608 30.128C44.0832 28.7496 46.5161 28.1913 48.1702 26.1857C49.8037 24.1939 50.2654 21.9539 50.2723 19.3832H50.2861ZM54.6212 21.4233C54.5868 21.7816 54.5247 22.1331 54.5178 22.4915C54.4696 26.5785 54.3869 30.6655 54.4007 34.7457C54.4145 39.1084 54.5041 43.4779 54.5937 47.8406C54.6144 48.7918 54.5799 49.8394 56.1237 50.6044C55.4896 40.6867 56.2753 31.086 54.6212 21.4233ZM45.2618 54.588C49.5211 55.3462 56.6751 55.1463 58.1224 54.2779C54.6419 53.0097 54.5661 53.0166 49.5349 54.2227C49.142 54.3192 48.6596 54.0436 48.2185 53.9402C48.1978 53.7472 48.1771 53.5542 48.1564 53.3543C49.4108 52.865 50.6583 52.3756 51.9126 51.8863C51.8851 51.7691 51.8575 51.6451 51.8299 51.5279H45.2686V54.588H45.2618ZM65.945 53.9608C64.1668 53.3957 62.8229 52.9684 61.4858 52.5411C61.9613 53.1682 62.8091 53.3061 63.1192 53.7885C64.2564 55.5598 65.7313 54.8913 67.1855 54.7121C67.3165 51.9759 67.2682 51.8932 65.0903 51.1902C65.3522 52.038 65.5659 52.7478 65.9381 53.9677L65.945 53.9608ZM57.7158 46.2555C57.5435 47.4685 57.0541 48.778 57.9294 50.3563C58.9357 48.6953 58.1155 47.496 57.7158 46.2555Z" fill="white"></path></svg> 