<?xml version="1.0" encoding="UTF-8"?> <svg xmlns="http://www.w3.org/2000/svg" width="120" height="120" viewBox="0 0 120 120" fill="none"><path d="M119.656 60.702C119.181 93.64 92.0908 119.963 59.1442 119.488C26.1977 119.014 -0.116485 91.9236 0.357876 58.9771C0.832238 26.0305 27.9226 -0.292269 60.8606 0.182093C93.8071 0.656455 120.121 27.7468 119.647 60.6934L119.656 60.702Z" fill="#196EA5"></path><path d="M119.492 55.5523C114.981 55.6731 110.496 55.6386 106.071 54.4915C98.5851 52.5509 91.8578 48.4196 84.3112 46.6516C74.0995 44.2539 63.2236 43.9089 52.8136 44.918C42.5242 45.9185 32.9335 50.343 22.67 51.4728C15.4856 52.2663 8.19769 51.8782 0.935644 51.5418C0.599279 53.974 0.383666 56.4493 0.349167 58.9763C0.331918 60.2528 0.366414 61.5206 0.426787 62.7885C3.57482 62.8316 6.72284 62.8834 9.87088 62.9265C25.5852 63.1507 40.7562 68.6361 56.3238 70.3351C67.0013 71.4995 77.7822 70.706 88.4511 69.7487C93.0394 69.3347 96.9206 66.523 101.466 66.0918C105.347 65.7209 109.245 65.6692 113.144 65.5829C113.601 65.5743 116.24 65.5915 119.362 65.5829C119.517 63.9701 119.63 62.3486 119.647 60.7099C119.673 58.9763 119.604 57.26 119.483 55.5609L119.492 55.5523Z" fill="#27AAE1"></path><path d="M115.196 82.4633C112.557 82.9549 108.823 83.7225 107.244 84.4125C104.692 85.5337 96.1012 86.8619 93.5483 87.6985C90.9954 88.5351 87.2005 87.8969 87.2005 87.8969C87.2005 87.8969 68.7952 87.6295 67.8465 87.6209C66.8978 87.6036 56.4532 85.7148 53.9348 84.2227C51.4164 82.7393 45.0772 82.3512 45.0772 82.3512L24.4985 79.1514L4.3252 81.2386C6.43826 86.7325 9.34481 91.8384 12.9068 96.4181C19.0132 96.5648 25.0074 97.4617 28.3624 97.5049C31.8554 97.5566 39.4538 98.5398 43.2487 99.4627C47.0436 100.386 50.2262 99.8594 51.8131 99.8767C53.4001 99.9025 67.6827 99.5231 80.706 99.1349C93.7208 98.7382 88.3217 99.2471 90.866 98.7037C93.4103 98.1603 97.5243 98.7986 100.698 98.8417C103.096 98.8762 104.045 98.8934 105.183 98.7813C109.349 93.9601 112.738 88.4575 115.205 82.4633H115.196Z" fill="#27AAE1"></path><path d="M8.56869 29.635C17.9179 27.108 33.1406 24.4688 47.7682 28.3585C71.1585 34.5856 77.8427 33.128 86.1225 31.3945C94.4023 29.6523 99.4823 29.4194 101.388 29.4453C102.449 29.4625 107.314 29.5315 111.436 29.5919C108.693 24.9431 105.33 20.6998 101.475 16.9652C100.215 16.8186 98.9993 16.7065 98.0851 16.6892C95.2303 16.6461 90.1589 16.2666 85.398 15.8871C80.6458 15.5077 71.1413 14.1277 69.5543 14.1104C67.9674 14.0846 67.976 13.7741 61.6282 13.3773C55.289 12.9806 44.8444 10.9624 40.4027 10.5915C36.1162 10.2293 33.0026 9.31508 28.5005 9.19434C20.3242 14.2916 13.4675 21.3121 8.56006 29.6436L8.56869 29.635Z" fill="#27AAE1"></path><path d="M90.6503 58.2177C90.5813 62.9527 80.2316 66.6355 67.5273 66.4543C54.8231 66.2732 44.5769 62.2886 44.6459 57.5536C44.7149 52.8186 55.0646 49.1358 67.7688 49.317C80.4731 49.4981 90.7193 53.4827 90.6503 58.2177Z" fill="#5FB2E0"></path><path d="M80.4988 58.0712C80.4643 60.7104 74.6771 62.7717 67.5789 62.6682C60.4807 62.5647 54.7625 60.3395 54.797 57.7003C54.8315 55.0612 60.6187 52.9998 67.7169 53.1033C74.8151 53.2068 80.5333 55.432 80.4988 58.0712Z" fill="#A4DBF4"></path><path d="M85.432 24.0115C85.3285 26.8836 78.9979 28.9794 71.2874 28.7034C63.5855 28.4274 57.4188 25.8658 57.5223 23.0024C57.6258 20.1304 63.9564 18.0346 71.6669 18.3105C79.3688 18.5865 85.5355 21.1395 85.432 24.0115Z" fill="#5FB2E0"></path><path d="M79.2747 23.7881C79.2143 25.3923 75.6782 26.5653 71.3744 26.4101C67.0707 26.2548 63.6294 24.8231 63.6897 23.2275C63.7501 21.6233 67.2863 20.4503 71.59 20.6056C75.8938 20.7608 79.335 22.1839 79.2833 23.7881H79.2747Z" fill="#A4DBF4"></path><path d="M37.6167 19.027C37.5736 20.269 34.8223 21.1832 31.4759 21.0625C28.1295 20.9417 25.4558 19.8291 25.5076 18.5872C25.5507 17.3452 28.302 16.431 31.6484 16.5517C34.9948 16.6725 37.6685 17.7764 37.6167 19.027Z" fill="#A4DBF4"></path><path d="M29.8719 58.5288C29.8547 59.9778 24.6453 61.0731 18.2544 60.9783C11.8548 60.8834 6.68858 59.6414 6.71445 58.1925C6.7317 56.7435 11.9411 55.6482 18.332 55.743C24.7316 55.8379 29.8978 57.0799 29.8719 58.5288Z" fill="#5FB2E0"></path><path d="M101.69 93.2093C101.672 94.4944 97.0582 95.469 91.3831 95.3827C85.708 95.3051 81.1283 94.1925 81.1456 92.9161C81.1628 91.631 85.7771 90.6564 91.4522 90.7426C97.1272 90.8202 101.707 91.9328 101.69 93.2093Z" fill="#5FB2E0"></path><path d="M51.7445 90.2936C51.6928 92.0789 45.2501 93.3554 37.3412 93.1311C29.4323 92.9155 23.0672 91.2854 23.119 89.5001C23.1707 87.7148 29.622 86.4469 37.5223 86.6626C45.4226 86.8782 51.7963 88.5083 51.7445 90.2936Z" fill="#A4DBF4"></path><path d="M117.904 74.1824C117.594 75.4588 117.24 76.7181 116.852 77.96C115.205 77.9255 113.558 77.9255 111.91 78.0031C108.184 78.2015 104.7 79.3486 101.034 79.8747C95.9631 80.6078 90.3138 81.3064 85.1907 81.2978C81.6632 81.2978 78.1529 80.8321 74.6513 80.5043C71.693 80.2283 68.4932 80.5906 65.5953 79.9006C59.9374 78.5638 53.857 77.4512 48.087 76.718C40.9112 75.8038 33.6061 74.3204 26.413 73.7856C21.4969 73.4234 16.3221 73.087 11.4059 73.0698C8.47352 73.0698 5.56698 73.1215 2.64318 73.1733C2.38444 73.1733 2.12568 73.1733 1.86693 73.1819C1.71169 72.4919 1.54783 71.8019 1.41846 71.0947C6.43807 71.0947 11.6216 71.7071 16.4945 72.0262C26.3785 72.673 36.2452 73.57 46.1465 73.8374C51.3041 73.9754 56.1339 75.364 61.2139 76.0798C64.7846 76.5887 68.062 77.0975 71.6498 76.9164C77.2904 76.6404 82.9224 76.9682 88.563 77.1062C93.7465 77.2355 98.8351 76.6835 103.993 76.6232C108.702 76.5628 113.333 75.3122 117.913 74.1565L117.904 74.1824ZM20.0652 39.9076C24.1533 39.347 27.7326 38.7174 31.907 38.795C39.5054 38.9416 47.0952 39.1055 54.6936 39.3039C66.475 39.6057 78.2651 38.3983 89.9689 40.3475C93.9966 41.0202 97.8691 42.4864 101.966 42.8055C106.692 43.1764 112.117 41.9517 116.723 43.047C116.852 43.0815 117.051 43.1074 117.275 43.1332C116.826 41.5894 116.3 40.0715 115.731 38.588C102.725 38.7691 89.5807 37.9411 76.6953 36.5871C69.8559 35.8712 62.982 34.888 56.1167 34.4826C42.1963 33.6633 28.2587 34.0945 14.3211 33.9306C11.656 33.8961 8.99963 33.8444 6.33458 33.7668C4.93737 36.6388 3.77301 39.6402 2.84154 42.7451C8.58563 42.0207 14.347 40.7011 20.0566 39.9076H20.0652ZM41.9117 2.99363L51.2695 5.13257C51.2695 5.13257 57.7726 5.38269 58.4109 5.39131C59.0491 5.39994 68.7088 6.49528 69.6575 6.66778C70.6063 6.84027 78.8256 8.85847 79.4639 8.87572C80.1021 8.87572 85.1649 9.43632 86.2775 9.45357C87.2089 9.4622 91.1159 9.74682 92.6511 9.92794C83.5089 3.9251 72.6072 0.354456 60.8603 0.18196C54.2537 0.0870881 47.88 1.08756 41.9117 2.98501V2.99363ZM73.4697 105.094C72.9953 105.094 68.2258 105.49 67.5876 105.645C66.9494 105.801 59.9547 107.12 59.9547 107.12C59.9547 107.12 52.6582 106.698 52.1838 106.689C51.7094 106.689 45.2063 106.586 43.3003 106.404C41.4028 106.215 29.5179 104.938 29.5179 104.938L20.8242 104.809C31.0876 113.761 44.4474 119.273 59.1353 119.48C73.6163 119.687 86.9588 114.719 97.412 106.292C97.412 106.258 97.412 106.232 97.412 106.232C97.412 106.232 89.1754 105.482 88.6924 105.473C88.218 105.473 82.1893 105.378 81.3958 105.369C80.6024 105.361 73.9441 105.102 73.4697 105.094Z" fill="#0E577F"></path><path opacity="0.2" d="M108.572 25.2109C91.1501 50.6971 52.8217 99.2372 14.269 98.116C25.0241 110.95 41.0748 119.221 59.135 119.48C92.0816 119.954 119.172 93.6398 119.646 60.6932C119.836 47.4714 115.705 35.1984 108.572 25.2109Z" fill="#212A3C"></path><path opacity="0.2" d="M119.543 56.459C101.112 80.2633 65.7422 114.521 20.1689 104.232C30.5187 113.529 44.1372 119.273 59.1356 119.489C92.0822 119.963 119.173 93.6489 119.647 60.7024C119.664 59.2707 119.621 57.8648 119.543 56.459Z" fill="#212A3C"></path><path opacity="0.3" d="M82.5693 14.059C91.0215 28.4537 81.3877 49.8086 61.0505 61.7625C40.7133 73.7164 17.3661 71.7327 8.9052 57.3466C0.45294 42.9519 10.0782 21.597 30.424 9.64311C50.7612 -2.3108 74.1084 -0.327105 82.5693 14.059Z" fill="url(#paint0_linear_2570_5388)"></path><path opacity="0.3" d="M63.8787 12.1882C68.9328 20.787 62.2831 34.0605 49.0269 41.8487C35.7793 49.6369 20.936 48.9814 15.8906 40.3825C10.8365 31.7836 17.4861 18.5101 30.7338 10.722C43.9814 2.9338 58.8246 3.58928 63.8701 12.1882H63.8787Z" fill="white"></path><defs><linearGradient id="paint0_linear_2570_5388" x1="32.4571" y1="17.8031" x2="61.1944" y2="54.3915" gradientUnits="userSpaceOnUse"><stop stop-color="white"></stop><stop offset="1" stop-color="white" stop-opacity="0"></stop></linearGradient></defs></svg> 