<?xml version="1.0" encoding="UTF-8"?> <svg xmlns="http://www.w3.org/2000/svg" width="109" height="22" viewBox="0 0 109 22" fill="none"><path opacity="0.5" d="M104.588 7.15283C106.496 7.15283 108.062 8.25083 108.062 11.1488V16.4408H106.586V11.2388C106.586 9.43883 105.794 8.50283 104.408 8.50283C102.878 8.50283 101.942 9.65483 101.942 11.5268V16.4408H100.466V11.2388C100.466 9.43883 99.6562 8.50283 98.2522 8.50283C96.7402 8.50283 95.8222 9.76283 95.8222 11.5988V16.4408H94.3462V7.26083H95.6242L95.8222 8.52083C96.3082 7.85483 97.0822 7.15283 98.5042 7.15283C99.7822 7.15283 100.88 7.72883 101.402 8.89883C101.96 7.90883 102.95 7.15283 104.588 7.15283Z" fill="white"></path><path opacity="0.5" d="M93.1036 15.0908H93.5716V16.4408H92.7616C91.5376 16.4408 91.1236 15.9188 91.1056 15.0188C90.5296 15.8468 89.6116 16.5488 88.0276 16.5488C86.0116 16.5488 84.6436 15.5408 84.6436 13.8668C84.6436 12.0308 85.9216 11.0048 88.3336 11.0048H91.0336V10.3748C91.0336 9.18683 90.1876 8.46683 88.7476 8.46683C87.4516 8.46683 86.5876 9.07883 86.4076 10.0148H84.9316C85.1476 8.21483 86.6056 7.15283 88.8196 7.15283C91.1596 7.15283 92.5096 8.32283 92.5096 10.4648V14.4788C92.5096 14.9648 92.6896 15.0908 93.1036 15.0908ZM91.0336 12.6968V12.2468H88.1896C86.8756 12.2468 86.1376 12.7328 86.1376 13.7768C86.1376 14.6768 86.9116 15.2888 88.1356 15.2888C89.9716 15.2888 91.0336 14.2268 91.0336 12.6968Z" fill="white"></path><path opacity="0.5" d="M83.9687 7.26074H84.3827V8.70074H83.6447C81.7187 8.70074 81.1967 10.3027 81.1967 11.7607V16.4407H79.7207V7.26074H80.9987L81.1967 8.64674C81.6287 7.94474 82.3307 7.26074 83.9687 7.26074Z" fill="white"></path><path opacity="0.5" d="M76.5942 8.84483L76.7922 7.26083H78.0702V15.9908C78.0702 18.6368 76.6662 20.1488 73.5162 20.1488C71.1762 20.1488 69.5382 19.0508 69.3042 17.0348H70.8162C71.0682 18.1868 72.0942 18.8348 73.6242 18.8348C75.5502 18.8348 76.5942 17.9348 76.5942 15.9368V14.8568C75.9822 15.9008 74.9922 16.5488 73.4442 16.5488C70.9062 16.5488 69.0342 14.8388 69.0342 11.8508C69.0342 9.04283 70.9062 7.15283 73.4442 7.15283C74.9922 7.15283 76.0182 7.81883 76.5942 8.84483ZM73.5882 15.2348C75.3882 15.2348 76.6122 13.8488 76.6122 11.8868C76.6122 9.87083 75.3882 8.46683 73.5882 8.46683C71.7702 8.46683 70.5462 9.85283 70.5462 11.8508C70.5462 13.8488 71.7702 15.2348 73.5882 15.2348Z" fill="white"></path><path opacity="0.5" d="M63.8758 16.5488C61.1218 16.5488 59.3218 14.6588 59.3218 11.8508C59.3218 9.06083 61.0858 7.15283 63.6778 7.15283C66.2698 7.15283 67.9618 8.79083 68.0338 11.5088C68.0338 11.7068 68.0158 11.9228 67.9978 12.1388H60.8698V12.2648C60.9238 14.0108 62.0218 15.2348 63.7678 15.2348C65.0638 15.2348 66.0718 14.5508 66.3778 13.3628H67.8718C67.5118 15.1988 65.9998 16.5488 63.8758 16.5488ZM60.9598 10.9148H66.4498C66.3058 9.33083 65.2258 8.44883 63.6958 8.44883C62.3458 8.44883 61.1038 9.42083 60.9598 10.9148Z" fill="white"></path><path opacity="0.5" d="M56.5078 16.4408V3.84082H57.9838V16.4408H56.5078Z" fill="white"></path><path opacity="0.5" d="M51.0257 16.5488C48.2717 16.5488 46.4717 14.6588 46.4717 11.8508C46.4717 9.06083 48.2357 7.15283 50.8277 7.15283C53.4197 7.15283 55.1117 8.79083 55.1837 11.5088C55.1837 11.7068 55.1657 11.9228 55.1477 12.1388H48.0197V12.2648C48.0737 14.0108 49.1717 15.2348 50.9177 15.2348C52.2137 15.2348 53.2217 14.5508 53.5277 13.3628H55.0217C54.6617 15.1988 53.1497 16.5488 51.0257 16.5488ZM48.1097 10.9148H53.5997C53.4557 9.33083 52.3757 8.44883 50.8457 8.44883C49.4957 8.44883 48.2537 9.42083 48.1097 10.9148Z" fill="white"></path><path opacity="0.5" d="M37.6655 5.28082V3.84082H47.4035V5.28082H43.3175V16.4408H41.7515V5.28082H37.6655Z" fill="white"></path><path fill-rule="evenodd" clip-rule="evenodd" d="M23.3815 0.501324C23.6904 0.371312 24.0285 0.326472 24.3606 0.37147C24.6927 0.416468 25.0067 0.549659 25.2698 0.75718C25.533 0.964701 25.7357 1.23897 25.8569 1.55143C25.9781 1.86389 26.0134 2.20312 25.959 2.53382L23.124 19.7301C22.849 21.3888 21.029 22.3401 19.5077 21.5138C18.2352 20.8226 16.3452 19.7576 14.6452 18.6463C13.7952 18.0901 11.1915 16.3088 11.5115 15.0413C11.7865 13.9576 16.1615 9.88507 18.6615 7.46382C19.6427 6.51257 19.1952 5.96382 18.0365 6.83882C15.159 9.01132 10.539 12.3151 9.01146 13.2451C7.66396 14.0651 6.96146 14.2051 6.12146 14.0651C4.58896 13.8101 3.16771 13.4151 2.00771 12.9338C0.440211 12.2838 0.516461 10.1288 2.00646 9.50132L23.3815 0.501324Z" fill="#9BACCB"></path></svg> 