<?xml version="1.0" encoding="UTF-8"?> <svg xmlns="http://www.w3.org/2000/svg" width="142" height="143" viewBox="0 0 142 143" fill="none"><path d="M84.7829 128.87C116.373 121.414 135.937 89.7617 128.481 58.1719C121.025 26.5821 89.3726 7.01772 57.7828 14.4736C26.1931 21.9295 6.62864 53.5822 14.0845 85.172C21.5404 116.762 53.1931 136.326 84.7829 128.87Z" fill="#E6E7E8"></path><path d="M78.2822 88.6653C78.2822 96.6562 84.7555 103.13 92.7464 103.13C100.737 103.13 107.211 96.6562 107.211 88.6653C107.211 80.6745 100.737 74.2012 92.7464 74.2012C84.7555 74.2012 78.2822 80.6745 78.2822 88.6653Z" fill="#D1D3D4"></path><path d="M105.747 44.6552C105.747 40.1696 102.107 36.5166 97.6083 36.5166C93.1093 36.5166 89.4697 40.1561 89.4697 44.6552C89.4697 49.1543 93.1093 52.7938 97.6083 52.7938C102.107 52.7938 105.747 49.1543 105.747 44.6552Z" fill="#A7A9AC"></path><path d="M111.227 76.4708C111.227 85.4018 116.894 92.9898 124.804 95.9175C128.162 88.5175 130.042 80.3252 130.042 71.6763C130.042 66.2908 129.303 61.0934 127.947 56.1377C118.412 58.0045 111.227 66.3982 111.227 76.4842V76.4708Z" fill="#D1D3D4"></path><path d="M31.8947 86.5836C31.8947 84.7705 30.4308 83.3066 28.6178 83.3066C26.8047 83.3066 25.3408 84.7705 25.3408 86.5836C25.3408 88.3966 26.8047 89.8605 28.6178 89.8605C30.4308 89.8605 31.8947 88.3966 31.8947 86.5836Z" fill="#D1D3D4"></path><path d="M109.024 62.0055C109.024 60.1924 107.56 58.7285 105.747 58.7285C103.934 58.7285 102.47 60.1924 102.47 62.0055C102.47 63.8185 103.934 65.2824 105.747 65.2824C107.56 65.2824 109.024 63.8185 109.024 62.0055Z" fill="#D1D3D4"></path><path d="M35.293 101.329C35.293 105.828 38.9325 109.468 43.4316 109.468C47.9306 109.468 51.5702 105.828 51.5702 101.329C51.5702 96.83 47.9306 93.1904 43.4316 93.1904C38.9325 93.1904 35.293 96.83 35.293 101.329Z" fill="#D1D3D4"></path><path d="M66.5845 32.339C66.5845 35.2131 68.9079 37.5365 71.7819 37.5365C74.6559 37.5365 76.9793 35.2131 76.9793 32.339C76.9793 29.465 74.6559 27.1416 71.7819 27.1416C68.9079 27.1416 66.5845 29.465 66.5845 32.339Z" fill="#D1D3D4"></path><path d="M90.5173 127.196C88.8385 117.419 80.3507 109.979 70.1036 109.979C59.8565 109.979 51.8253 117.016 49.8242 126.377C56.4721 128.995 63.7109 130.432 71.2855 130.432C78.0273 130.432 84.4872 129.291 90.5173 127.196Z" fill="#A7A9AC"></path><path d="M38.0598 70.3061C44.1705 70.3061 49.1396 65.3504 49.1396 59.2263C49.1396 53.1022 44.1839 48.1465 38.0598 48.1465C31.9357 48.1465 26.98 53.1022 26.98 59.2263C26.98 65.3504 31.9357 70.3061 38.0598 70.3061Z" fill="#A7A9AC"></path><path d="M72.3595 60.4752C72.3595 58.6621 70.8957 57.1982 69.0826 57.1982C67.2695 57.1982 65.8057 58.6621 65.8057 60.4752C65.8057 62.2882 67.2695 63.7521 69.0826 63.7521C70.8957 63.7521 72.3595 62.2882 72.3595 60.4752Z" fill="#D1D3D4"></path><path d="M61.9513 83.75C59.0773 83.75 56.7539 86.0734 56.7539 88.9474C56.7539 91.8215 59.0773 94.1449 61.9513 94.1449C64.8254 94.1449 67.1488 91.8215 67.1488 88.9474C67.1488 86.0734 64.8254 83.75 61.9513 83.75Z" fill="#D1D3D4"></path><path opacity="0.1" d="M118.787 37.0935C102.603 61.7242 65.9931 110.287 28.1069 111.509C38.8375 123.14 54.215 130.419 71.2846 130.419C103.745 130.419 130.054 104.109 130.054 71.649C130.054 58.7293 125.864 46.7766 118.8 37.0801L118.787 37.0935Z" fill="#212A3C"></path><path opacity="0.1" d="M129.933 68.1025C112.689 91.3097 79.2617 125.328 35.3052 118.116C45.2434 125.825 57.7199 130.431 71.2843 130.431C103.745 130.431 130.054 104.122 130.054 71.6615C130.054 70.4662 130.014 69.2844 129.933 68.1025Z" fill="#212A3C"></path><path opacity="0.5" d="M89.7514 27.0064C97.5274 39.8052 89.1604 59.0774 71.0836 70.0497C53.0067 81.0355 32.0424 79.5582 24.2798 66.7594C16.5038 53.9605 24.8708 34.6884 42.9476 23.716C61.0245 12.7303 81.9888 14.2076 89.7514 27.0064Z" fill="url(#paint0_linear_2570_5368)"></path><path opacity="0.3" d="M72.977 25.5838C77.6103 33.2255 71.8354 45.2185 60.0573 52.3767C48.2791 59.5349 34.9699 59.132 30.3231 51.4903C25.6763 43.8486 31.4647 31.8556 43.2428 24.6974C55.021 17.5392 68.3302 17.9421 72.977 25.5838Z" fill="white"></path><defs><linearGradient id="paint0_linear_2570_5368" x1="42.664" y1="31.2321" x2="68.8907" y2="63.6607" gradientUnits="userSpaceOnUse"><stop stop-color="white"></stop><stop offset="1" stop-color="white" stop-opacity="0"></stop></linearGradient></defs></svg> 