<?xml version="1.0" encoding="UTF-8"?> <svg xmlns="http://www.w3.org/2000/svg" width="202" height="155" viewBox="0 0 202 155" fill="none"><path d="M166.53 70.8188C167.95 72.2388 166.8 73.5888 166.3 74.8588C164.52 79.3588 162.63 83.8088 160.78 88.2788C160.58 88.7588 160.44 89.2588 160.18 89.9988C160.98 90.3388 161.65 90.6388 162.35 90.9388C165.24 85.1788 168.05 79.5888 170.99 73.7288C175.97 75.2188 180.66 76.6188 185.55 78.0788C186.14 76.9788 186.77 75.8088 187.41 74.6488C189.4 71.0788 192.81 69.4088 196.09 70.3788C199.66 71.4388 201.88 74.7088 200.91 78.9988C199.92 83.4188 198.05 87.6388 196.55 91.9388C195.63 94.5788 194.58 97.1688 193.76 99.8388C192.33 104.469 188.24 107.539 183.26 107.539L183.56 107.659C182.59 106.729 181.52 105.879 180.68 104.839C178.56 102.239 178.27 99.2288 179.41 95.3288C178.17 96.6888 177.45 97.4788 176.56 98.4688C176.04 95.6188 176.05 95.6288 179.35 88.5188C180.75 85.4888 182.06 82.4088 183.57 78.9888C179.46 78.0188 175.59 77.1088 171.36 76.1088C169.14 81.2488 166.93 86.3588 164.73 91.4388C167.91 94.1388 172.25 93.8688 174.58 97.0788C174.65 97.1788 174.38 97.5288 174.12 98.0388C170.86 96.6988 167.46 95.5588 164.31 93.9288C161.21 92.3288 158.11 90.8888 154.85 89.6188C146.84 86.4888 139.01 82.8888 130.63 79.2788C127.48 86.0388 124.3 93.0888 120.92 100.039C117.53 107.009 115.44 114.619 110.73 121.379C100.59 118.189 91.3103 113.249 81.3303 109.619C79.1303 114.449 76.9803 119.169 74.7203 124.159C62.6903 120.499 51.9203 114.379 40.0503 110.429C41.3103 105.079 43.6503 100.489 46.5003 96.2388C57.0403 101.839 68.2203 105.619 78.7803 111.049C79.2003 110.569 79.6103 110.109 80.4603 109.149C69.8403 104.649 59.6303 100.329 49.1003 95.8788C49.4703 94.8088 49.7903 93.6888 50.2503 92.6188C54.9403 81.7588 59.8003 70.9688 64.3303 60.0488C69.0703 48.6288 73.5103 37.0788 78.0503 25.5788C79.1403 22.8188 80.2903 20.1388 83.2903 18.5088C103.9 27.3688 124.81 35.7888 145.66 45.1088C143.33 50.3288 141.28 54.9388 139.26 59.4588C147.05 62.5388 154.55 65.4588 162.02 68.4788C163.62 69.1288 165.08 70.0988 166.6 70.9188C165.27 70.7288 163.87 70.7588 162.64 70.3288C157.72 68.6188 152.86 66.7288 147.94 64.9788C145.24 64.0188 142.74 62.2088 139.63 62.7288C137.46 68.0188 135.34 73.1688 133.17 78.4488C141.67 81.9588 149.88 85.3588 157.96 88.6988C160.97 82.3988 163.73 76.6088 166.49 70.8188H166.53ZM109.96 119.389C121.44 95.0888 131.88 70.5088 143.17 46.0188C122.82 37.4188 102.47 28.8288 82.0903 20.2288C81.7203 21.0988 81.5303 21.4488 81.4003 21.8188C76.4103 36.4588 70.9703 50.9288 64.4103 64.9588C61.8503 70.4388 59.3903 75.9588 57.0003 81.5188C55.1603 85.7988 53.5103 90.1488 51.6803 94.7088C71.1203 102.949 90.1803 111.019 109.95 119.399L109.96 119.389ZM42.4103 108.819C52.9303 113.299 62.9903 117.589 73.3503 122.009C74.9603 118.709 76.4703 115.619 77.9803 112.519C67.5603 108.029 57.3003 103.609 46.7803 99.0788C45.2703 102.439 43.9703 105.349 42.4103 108.819ZM199.38 78.2488C199.34 73.4288 196.23 71.5888 192.8 72.5488C191.36 72.9488 189.9 74.4888 189.13 75.8888C187.33 79.1688 185.74 82.5988 184.45 86.1088C183.07 89.8688 182.06 93.7688 181.02 97.6388C180.4 99.9788 180.86 102.169 182.67 103.939C184.63 105.849 186.55 106.129 188.22 104.079C190.13 101.739 191.72 99.0588 193.05 96.3388C194.33 93.7188 195.12 90.8588 196.08 88.0888C197.21 84.8188 198.28 81.5388 199.38 78.2588V78.2488Z" fill="white"></path><path d="M181.78 44.15C175.98 45.07 173.92 43.92 172.79 39.04C172.32 37 171.08 35.97 169.38 35.46C164.35 33.95 158.71 37.11 159.1 43.31C159.32 46.75 161.04 49.44 163.81 51.42C166.53 53.37 168.21 53.3 170.67 51.11C171.36 50.5 171.78 49.59 172.35 48.79C174.71 49.73 176.53 50.45 178.42 51.2C178.26 54.67 175.67 55.77 173.57 56.81C164.32 61.4 152.72 55.08 151.47 47.23C151.19 45.48 150.18 44.51 148.5 43.82C139.16 40.02 129.88 36.09 120.58 32.2C120.46 32.15 120.33 32.09 120.21 32.04C117.9 31.09 116.32 28.98 113.47 28.7C110.88 28.45 108.41 27 105.9 26.04C103.39 25.08 100.9 24.05 98.4004 23.06C93.1504 20.98 87.8804 18.95 82.6504 16.83C79.7704 15.66 79.4405 14.96 80.6205 12.28C82.2405 8.62996 84.0204 5.04996 85.9504 0.959961C97.3204 5.40996 108.07 9.90996 118.38 15.48C107.46 12.74 97.5605 7.33996 86.5505 3.39996C85.0605 7.03996 83.6204 10.56 82.0804 14.34C93.0604 18.76 103.75 23.06 114.75 27.49C117.02 24.11 117.79 19.44 121.39 16.31C121.08 17.67 120.76 19.04 120.45 20.4C120.56 20.45 120.67 20.5 120.79 20.56C121.47 19.54 122.15 18.52 123.05 17.16C132.96 21.84 143.43 25.17 152.83 30.91C142.73 28.37 133.53 23.49 123.36 19.69C122.08 22.8 120.79 25.93 119.39 29.35C129.67 33.77 139.62 38.06 149.8 42.44C150.93 39.96 152 37.67 153.02 35.35C154.22 32.62 155.91 30.79 159.08 29.99C161.83 29.3 164.45 28.4 167.34 28.57C173.68 28.93 179.48 33.24 181.2 39.17C181.66 40.76 181.6 42.5 181.77 44.14L181.78 44.15ZM175.93 52.85C174.55 51.24 173.39 51.71 171.88 52.82C168.24 55.5 164.68 55.14 161.33 52.06C158.82 49.76 157.48 46.9 157.2 43.55C156.73 37.76 160.58 33.34 166.39 32.94C170.6 32.65 173.83 35.06 174.79 39.22C175.38 41.77 176.14 42.23 179.37 41.99C178.88 35.95 174.65 31.67 168.22 30.72C162.48 29.87 156.32 32.91 154.33 37.57C151.73 43.69 153.04 49.84 157.69 53.25C163.4 57.45 170.52 57.33 175.93 52.85Z" fill="white"></path><path d="M183.571 107.659C183.571 107.659 183.281 107.539 183.271 107.539C186.401 109.979 187.301 113.089 185.991 116.819C184.881 119.969 183.721 123.109 182.571 126.249C181.021 130.499 178.711 134.399 177.661 138.919C176.571 143.619 173.321 145.289 169.271 144.259C164.521 143.049 161.961 139.639 162.731 135.119C163.131 132.779 164.031 130.519 164.801 127.889C159.701 125.259 153.891 124.059 149.321 120.199C150.251 117.659 151.111 115.309 151.971 112.939C153.721 109.639 155.521 106.369 157.181 103.029C157.341 102.709 156.691 101.989 156.061 100.739C154.431 104.839 153.091 108.149 151.841 111.489C151.681 111.919 151.981 112.509 152.071 113.029C151.431 113.749 150.641 114.379 150.201 115.199C149.391 116.709 148.781 118.329 148.061 119.959C138.561 116.269 129.391 112.719 119.951 109.049C120.381 107.649 120.611 106.629 121.011 105.679C123.061 100.859 125.111 96.0391 127.271 91.2591C128.631 88.2491 130.011 88.1391 132.631 89.3891C137.711 91.8191 143.091 93.599 148.271 95.829C150.951 96.979 153.461 98.5091 156.041 99.8691C156.271 99.9891 156.471 100.199 156.711 100.289C162.081 102.329 167.461 104.359 173.021 106.469V108.899C176.461 106.129 179.991 106.539 183.571 107.639V107.659ZM154.431 100.249C146.051 97.059 137.811 93.9191 129.381 90.7091C127.121 96.1991 124.801 101.829 122.381 107.699C130.781 111.099 138.711 114.299 146.791 117.569C149.351 111.779 151.881 106.039 154.431 100.249ZM184.611 115.079C184.651 111.619 183.681 110.189 181.481 109.299C177.861 107.839 174.911 109.019 173.291 112.709C171.791 116.149 170.331 119.619 169.001 123.119C167.531 127.009 165.981 130.889 164.911 134.899C163.951 138.489 166.131 141.429 169.861 142.389C172.731 143.129 174.551 141.739 175.941 138.059C177.681 133.439 179.631 128.909 181.391 124.299C182.671 120.919 183.781 117.479 184.621 115.079H184.611ZM170.791 108.189C166.761 106.429 162.911 104.759 158.961 103.029C156.421 108.769 154.061 114.109 151.551 119.809C155.671 121.699 159.471 123.429 163.511 125.279C166.031 119.359 168.331 113.969 170.791 108.189Z" fill="white"></path><path d="M70.7907 22.3682C57.2707 17.0882 43.6907 13.4582 31.3607 5.90816C22.6107 26.4682 13.7507 46.7882 4.83069 67.0882C4.41069 66.9682 3.98073 66.8382 3.56073 66.7182C3.63073 65.9682 3.52072 65.1482 3.80072 64.4782C5.36072 60.7882 7.01073 57.1482 8.68073 53.3882C5.94073 52.1882 3.5107 51.1182 0.720703 49.8982C0.990703 48.2582 1.25068 46.7382 1.51068 45.1682C5.18068 44.1682 7.4507 47.1882 11.0307 47.6782C14.1307 40.6182 17.2907 33.4282 20.6407 25.7982C17.4307 24.7482 14.4507 23.7682 10.9407 22.6182C11.7807 20.4382 12.5107 18.5282 13.3807 16.2482C16.8907 17.2382 20.0607 18.1282 23.3507 19.0582C26.2507 14.2082 27.0407 8.07816 32.2607 4.11816C44.5907 11.7682 58.7907 15.1982 72.0607 20.9182C71.7507 31.3782 53.1207 80.3282 47.0807 86.2782C46.2307 84.9982 47.0207 84.0082 47.4707 82.9882C51.6107 73.4982 56.1007 64.1482 59.8007 54.4982C63.7907 44.0982 67.0407 33.4282 70.7907 22.3582V22.3682ZM13.1707 21.3082C15.8107 22.0982 17.5607 22.7582 19.3707 23.1382C21.7607 23.6382 21.7807 23.5482 22.2007 19.9982C19.4007 20.5482 16.4307 17.3882 13.1707 21.3082ZM2.92072 47.6182C5.38072 50.4482 7.52069 51.0282 10.0207 49.5182C7.79069 48.2382 5.76072 46.8882 2.92072 47.6182Z" fill="white"></path><path d="M107.221 137.989C108.111 136.529 109.091 135.109 109.861 133.589C111.201 130.969 112.411 128.289 113.861 125.229C114.431 125.939 114.701 126.289 115.231 126.949C121.021 122.859 127.451 121.339 134.121 125.129C139.221 128.029 140.921 133.129 141.991 139.039C139.451 138.889 137.141 138.749 134.661 138.599C133.561 135.009 132.351 131.589 128.411 130.259C126.141 129.489 123.961 129.279 121.791 130.499C118.071 132.589 116.391 139.149 118.601 143.069C121.261 147.789 126.741 148.259 132.731 144.189C133.741 144.629 134.861 145.069 135.921 145.619C136.501 145.919 136.981 146.409 137.471 146.779C135.401 153.089 128.871 156.049 122.591 153.519C116.191 150.939 111.941 146.429 110.531 140.199C109.181 139.229 108.241 138.549 107.301 137.869L107.201 137.989H107.221ZM138.941 136.589C138.871 135.639 139.001 134.819 138.741 134.129C136.291 127.489 131.311 124.459 125.051 125.099C117.511 125.869 113.501 130.689 112.781 136.979C112.021 143.599 116.091 147.519 121.071 150.619C126.241 153.839 131.091 152.769 135.331 147.889C133.191 146.919 133.141 146.819 131.021 147.889C125.231 150.839 115.881 148.179 115.631 139.389C115.421 132.009 120.491 125.719 128.721 128.189C131.821 129.119 134.141 131.179 135.351 134.229C135.941 135.709 136.441 137.039 138.951 136.579L138.941 136.589Z" fill="white"></path><path d="M43.9103 70.0086C42.5003 69.6986 41.5503 69.5986 40.7003 69.2686C38.5203 68.4186 37.9103 67.3586 38.8303 65.1986C43.9803 53.1186 49.2203 41.0886 54.4603 29.0486C54.7703 28.3386 55.3203 27.7286 55.9103 26.8486C57.8503 27.5786 59.6604 28.2586 61.3704 28.8986C55.5104 42.6986 49.7904 56.1886 43.9204 70.0086H43.9103ZM40.3104 67.0986C43.5904 67.7286 43.5904 65.5386 44.1104 64.3286C48.9404 53.1286 53.6604 41.8886 58.4904 30.4686C57.9004 30.1186 57.2704 29.7386 56.3104 29.1686C50.9704 41.8386 45.7404 54.2386 40.3104 67.0986Z" fill="white"></path><path d="M107.321 137.868C105.391 137.358 103.381 137.048 101.541 136.308C94.5706 133.478 87.6506 130.528 80.7206 127.588C79.3806 127.018 78.1106 126.278 76.5806 125.498C77.6506 121.008 79.3206 117.048 82.3206 113.358C92.0506 117.798 102.171 121.118 111.241 126.778C101.391 124.188 92.3706 119.458 82.4106 115.758C81.2206 118.588 80.0706 121.338 78.7906 124.398C81.6706 125.688 84.3106 126.908 86.9806 128.058C92.6506 130.508 98.3606 132.848 103.991 135.388C105.211 135.938 106.151 137.108 107.211 137.988L107.311 137.868H107.321Z" fill="white"></path><path d="M21.1603 53.1291C24.7003 50.1291 26.1903 50.0491 28.4503 52.0591C30.7803 54.1391 31.5303 56.7591 30.9603 59.7291C30.3703 62.7991 28.3203 64.6091 25.3903 65.4691C22.6803 66.2691 19.6803 65.0491 17.7003 62.3791C15.7703 59.7691 15.4603 56.3191 17.1203 54.1191C17.5603 53.5291 18.4503 53.2791 19.4703 53.0691C17.9603 56.6391 17.1803 59.9191 20.6803 62.5691C22.6403 64.0491 25.0603 63.9891 27.0403 62.4891C28.8003 61.1591 29.4903 58.2891 28.6603 55.8591C27.5303 52.5491 24.9003 52.4591 21.1703 53.1491L21.1603 53.1291Z" fill="white"></path><path d="M43.0804 85.5896C42.1104 87.3996 41.0604 86.4096 40.2004 86.0296C31.7604 82.2396 23.3104 78.4596 14.9204 74.5496C12.0104 73.1896 9.27041 71.4796 6.48041 69.8796C6.00041 69.5996 5.66039 69.0696 5.65039 68.0596C18.1204 73.8996 30.5804 79.7396 43.0804 85.5896Z" fill="white"></path><path d="M30.9904 21.9294C33.0604 21.3194 34.5804 21.0394 35.9304 20.4294C37.9804 19.4894 39.7904 19.5394 41.4804 21.0794C44.7004 24.0294 44.3004 31.1094 40.7204 33.6294C38.3204 35.3194 35.7304 35.2994 33.1204 34.0894C30.7204 32.9794 29.4304 31.0394 29.2504 28.4394C29.0704 25.9794 29.5204 23.6494 30.9904 21.9294ZM36.5304 32.8494C39.7104 32.8894 41.5104 30.7894 41.5804 26.9494C41.6404 23.6394 40.4003 22.0094 37.7603 21.9394C33.6003 21.8194 31.1804 23.8894 31.1704 27.5794C31.1704 30.5794 33.4304 32.8094 36.5304 32.8494Z" fill="white"></path><path d="M92.9604 40.3491C103.31 41.8791 111.03 48.3191 119.68 51.8791C117.19 58.0291 114.9 63.7191 112.54 69.5691C111.05 69.0491 110.74 67.5291 110.15 66.2591C108.91 63.5791 107.81 60.8291 106.49 58.1791C105.09 55.3691 103.31 54.0791 102.13 54.9191C100.19 56.2991 100.76 58.2991 101.47 60.0391C103.22 64.3991 104.96 68.7691 107.04 72.9791C108.73 76.4091 108.9 79.5091 107.12 82.9691C104.73 87.6291 102.75 92.4991 100.44 97.1991C98.9504 100.229 97.7604 100.829 94.6504 99.6091C88.6404 97.2491 82.6704 94.7691 76.8604 91.9591C73.0104 90.0991 72.4304 88.2591 73.9804 83.9891C75.9504 78.5691 78.1604 73.2291 80.4804 67.9491C84.4804 58.8491 88.6504 49.8191 92.9504 40.3291L92.9604 40.3491ZM94.1004 42.7691C90.6404 50.4591 87.2304 57.8891 83.9504 65.3891C81.2004 71.6591 78.4904 77.9591 76.0004 84.3291C74.6104 87.8991 75.1104 88.9391 78.7504 90.6191C83.8704 92.9991 89.0904 95.1491 94.2904 97.3391C95.4704 97.8391 96.7504 98.1091 97.8804 98.4491C100.72 92.2091 103.5 86.4191 105.94 80.4791C106.53 79.0491 106.36 76.9891 105.81 75.4891C104.71 72.4791 102.87 69.7291 101.77 66.7191C100.63 63.5991 99.8604 60.3291 99.2004 57.0591C98.8604 55.4091 99.5004 53.6991 101.25 53.0691C103.14 52.3891 105.04 52.6691 106.34 54.4191C107.37 55.8191 108.29 57.3091 109.12 58.8391C110.06 60.5691 110.86 62.3691 112.01 64.7591C113.79 60.5291 115.33 56.8991 117 52.9191C109.36 49.4491 102.71 44.2091 94.1104 42.7691H94.1004Z" fill="white"></path></svg> 