<?xml version="1.0" encoding="UTF-8"?> <svg xmlns="http://www.w3.org/2000/svg" width="380" height="210" viewBox="0 0 380 210" fill="none"><path d="M379.999 64.9292C379.999 29.073 350.932 0.00585938 315.076 0.00585938H-0.000976562V144.959C-0.000976562 180.815 29.0662 209.882 64.9223 209.882H379.999V64.9292Z" fill="#008CB3"></path><mask id="mask0_2647_1315" style="mask-type:alpha" maskUnits="userSpaceOnUse" x="-1" y="0" width="381" height="210"><path d="M379.999 64.9292C379.999 29.073 350.932 0.00585938 315.076 0.00585938H-0.000976562V144.959C-0.000976562 180.815 29.0662 209.882 64.9223 209.882H379.999V64.9292Z" fill="#008CB3"></path></mask><g mask="url(#mask0_2647_1315)"><g style="mix-blend-mode:screen" filter="url(#filter0_f_2647_1315)"><ellipse cx="177.049" cy="95.1862" rx="177.049" ry="95.1862" transform="matrix(-1 0 0 1 130.124 -126.717)" fill="#1EF1FC"></ellipse></g><g style="mix-blend-mode:screen" filter="url(#filter1_f_2647_1315)"><ellipse cx="177.049" cy="95.1862" rx="177.049" ry="95.1862" transform="matrix(-1 0 0 1 583.564 137.058)" fill="#1EF1FC"></ellipse></g></g><defs><filter id="filter0_f_2647_1315" x="-345.705" y="-248.448" width="597.559" height="433.834" filterUnits="userSpaceOnUse" color-interpolation-filters="sRGB"><feFlood flood-opacity="0" result="BackgroundImageFix"></feFlood><feBlend mode="normal" in="SourceGraphic" in2="BackgroundImageFix" result="shape"></feBlend><feGaussianBlur stdDeviation="60.8656" result="effect1_foregroundBlur_2647_1315"></feGaussianBlur></filter><filter id="filter1_f_2647_1315" x="107.736" y="15.3265" width="597.559" height="433.834" filterUnits="userSpaceOnUse" color-interpolation-filters="sRGB"><feFlood flood-opacity="0" result="BackgroundImageFix"></feFlood><feBlend mode="normal" in="SourceGraphic" in2="BackgroundImageFix" result="shape"></feBlend><feGaussianBlur stdDeviation="60.8656" result="effect1_foregroundBlur_2647_1315"></feGaussianBlur></filter></defs></svg> 