<?xml version="1.0" encoding="UTF-8"?> <svg xmlns="http://www.w3.org/2000/svg" width="176" height="177" viewBox="0 0 176 177" fill="none"><path d="M121.187 121.45C122.811 125.463 124.322 128.956 125.653 132.515C126.739 135.404 126.239 136.669 123.51 138.048C122.16 138.728 120.678 139.209 119.214 139.596C111.482 141.607 103.74 143.533 96.0073 145.535C93.9208 146.073 91.6926 146.46 89.861 147.499C88.322 148.367 86.953 149.897 86.075 151.455C85.027 153.324 86.2544 155.411 88.4542 155.637C90.1725 155.807 92.0703 155.713 93.6942 155.156C102.682 152.049 111.633 148.821 120.555 145.516C122.32 144.865 123.925 143.76 125.53 142.731C127.419 141.513 127.844 140.625 128.212 137.935C130.119 139.124 130.053 140.654 128.892 142.051C127.853 143.288 126.569 144.421 125.181 145.242C118.242 149.33 110.632 151.861 103.022 154.334C99.0569 155.628 94.9594 156.515 90.994 157.799C90.2009 158.054 89.7194 159.282 89.0868 160.065C89.2096 160.339 89.3229 160.613 89.4456 160.896C90.7485 160.896 92.1175 161.16 93.3449 160.849C101.455 158.791 109.537 156.647 117.6 154.429C119.044 154.032 120.394 153.22 121.726 152.484C125.427 150.454 126.088 149.623 127.532 145.176C127.815 146.158 128.08 146.63 128.07 147.102C128.042 149.226 127.995 151.247 128.656 153.4C129.486 156.081 127.834 158.338 125.738 159.961C124.482 160.934 124.067 161.916 124.086 163.483C124.152 170.451 119.649 175.294 112.549 176.012C110.906 176.172 109.244 176.134 107.592 176.087C102.078 175.927 99.2268 173.689 97.7539 168.44C89.1623 167.571 85.9995 164.437 87.4062 158.186C83.0537 154.4 82.761 153.305 85.3669 148.131C86.0372 146.81 85.9806 145.856 85.3481 144.61C83.2898 140.531 81.3166 136.415 79.4 132.26C78.7202 130.787 77.9931 129.702 76.171 129.466C66.5313 128.238 58.95 123.414 53.5873 115.464C44.212 101.557 41.1246 86.3848 47.8374 70.6838C54.2481 55.7003 66.1254 46.6082 82.3929 43.8702C95.6864 41.6232 107.97 44.6162 118.77 52.5469C129.647 60.5343 135.113 71.5996 135.774 85.1291C136.331 96.4115 133.225 106.448 126.324 115.332C124.7 117.428 122.915 119.411 121.187 121.459V121.45ZM105.921 88.4524C106.723 87.8859 107.318 87.4139 107.96 87.0268C111.425 84.912 113.814 85.4784 116.014 88.8395C117.996 91.8796 117.694 94.9953 115.863 97.7993C113.578 101.283 110.991 104.607 108.319 107.807C106.072 110.498 104.797 113.349 105.326 116.88C105.647 119.014 105.836 121.167 106.308 123.263C107.554 128.748 108.914 134.215 110.273 139.851C115.107 138.482 120.149 138.208 124.501 134.791C123.076 131.316 121.896 127.832 120.253 124.585C118.912 121.922 119.752 119.949 121.367 117.976C122.651 116.408 124.105 114.973 125.323 113.349C133.461 102.501 135.812 90.2557 132.791 77.2549C128.127 57.2203 111.397 46.3251 92.2213 45.2487C78.6163 44.484 67.0883 49.2424 57.7414 59.2314C51.3873 66.0291 47.2898 73.7616 46.7045 83.2691C46.2135 91.1715 47.2427 98.8096 50.3866 105.985C53.9744 114.161 59.1388 121.252 67.7115 124.877C71.507 126.482 75.6234 127.323 79.7871 128.569C82.4212 134.073 85.1875 139.861 88.0199 145.771C91.8437 144.647 95.1859 143.666 98.953 142.57C96.3472 135.858 93.9396 129.324 91.2961 122.885C88.7658 116.729 84.7437 111.801 78.8995 108.383C76.728 107.118 74.651 105.56 72.8382 103.823C68.7218 99.8576 69.241 95.8734 74.0467 92.8993C78.1064 90.3974 82.8555 90.048 87.3118 88.8678C89.2662 88.3486 91.5415 89.0944 93.7413 89.2738C98.4904 84.0904 100.568 83.9017 105.94 88.4241L105.921 88.4524ZM108.404 140.257C106.818 133.393 105.43 127.228 103.948 121.082C102.475 114.973 103.372 109.601 108.055 105.003C110.122 102.973 111.878 100.575 113.493 98.1581C115.003 95.9016 115.844 93.343 114.682 90.5861C113.738 88.3391 112.143 87.4705 110.217 88.0936C108.073 88.7922 107.214 90.4068 107.724 92.8049C107.828 93.2959 108.224 93.9284 108.045 94.2399C107.526 95.1557 106.912 96.2227 106.053 96.6475C105.666 96.8458 104.259 95.8261 103.929 95.0802C103.579 94.2966 103.73 93.0975 104.061 92.2384C104.769 90.4256 103.966 89.3021 102.654 88.3296C99.9822 86.328 97.6123 87.3005 96.1395 90.9449C97.0459 92.0118 98.2449 92.9465 98.7453 94.1739C99.1607 95.1841 99.1608 96.8458 98.566 97.6389C97.9617 98.4509 96.2717 99.0457 95.2992 98.8002C94.3739 98.5736 93.411 97.2329 93.0899 96.1849C92.6556 94.797 92.8256 93.2203 92.7312 91.6814C90.3047 90.454 88.0577 89.8025 85.4425 91.3509C85.9051 91.9552 86.2166 92.3328 86.4904 92.7388C87.2646 93.8812 88.2465 94.9481 88.7375 96.2038C89.5211 98.2054 88.6902 99.9143 87.1324 101.283C85.5557 102.671 83.3653 103.096 81.8452 102.284C80.108 101.368 79.8531 99.7726 79.9948 98.0448C80.1269 96.3265 80.2969 94.6176 80.4574 92.7577C77.7949 92.8521 75.85 93.9189 74.0939 95.4295C71.422 97.7238 71.2332 99.7538 73.8484 102.133C75.7178 103.832 77.8232 105.296 79.9759 106.636C85.5085 110.101 89.7855 114.699 92.4196 120.657C94.5156 125.406 96.3189 130.278 98.1883 135.121C99.0947 137.453 99.8594 139.842 100.766 142.4C103.466 141.645 105.855 140.975 108.404 140.267V140.257ZM90.1914 163.492C91.8342 166.315 94.4306 166.382 96.8854 166.089C104.684 165.182 112.464 163.993 119.809 161.085C121.867 160.273 123.737 158.819 125.464 157.374C127.088 156.015 127.494 154.098 126.833 151.795C115.617 158.998 102.918 160.462 90.1914 163.483V163.492ZM99.7462 168.298C100.218 171.093 101.682 172.443 103.598 173.311C108.281 175.455 116.051 174.199 119.705 170.555C121.877 168.383 123.331 165.787 122.566 162.813C114.89 164.654 107.431 166.448 99.7555 168.298H99.7462ZM83.2049 93.3241C81.7414 95.675 81.6848 97.9032 82.2418 100.273C84.4228 100.943 85.9334 100.405 86.7076 98.4791C87.4534 96.6097 86.1506 94.6837 83.1954 93.3241H83.2049ZM95.101 93.2014C94.9877 94.3532 94.7705 94.8915 94.931 95.2786C95.1859 95.8923 95.6391 96.4304 96.1017 96.9119C96.1867 96.9969 96.9987 96.638 96.9987 96.4964C96.9798 95.8261 96.8948 95.118 96.6305 94.5138C96.47 94.1361 95.9507 93.9095 95.101 93.2014Z" fill="white"></path><path d="M175.475 45.7689C170.217 48.8845 165.439 51.6131 160.756 54.5116C156.111 57.3818 152.589 61.8381 147.076 64.6422C152.07 56.7208 169.339 45.2213 175.475 45.7689Z" fill="white"></path><path d="M75.2932 0.298828C76.8794 9.8535 78.39 18.9834 79.9006 28.1132C77.8991 26.4326 77.5875 24.1761 77.1437 22.0423C76.0108 16.5947 75.0194 11.1092 74.0564 5.62378C73.7448 3.82047 73.3955 1.90386 75.2838 0.298828H75.2932Z" fill="white"></path><path d="M148.36 95.3638C152.382 95.005 169.442 99.3386 171.822 101.236C170.16 102.058 170.169 102.048 164.212 100.396C161.54 99.6595 158.877 98.8759 156.168 98.3C153.468 97.7241 150.805 97.1671 148.36 95.3638Z" fill="white"></path><path d="M22.0534 76.718C14.9629 75.5662 7.86295 74.4143 0.630859 73.2341C0.791363 71.4874 2.26426 71.6386 3.38778 71.7708C6.89053 72.1862 10.3838 72.7338 13.8677 73.3097C15.4822 73.5741 17.0967 73.9517 18.664 74.4237C19.9197 74.8014 21.0998 75.4057 22.3178 75.9155C22.2328 76.1799 22.1478 76.4442 22.0534 76.7086V76.718Z" fill="white"></path><path d="M121.981 30.436C124.341 23.27 130.317 16.8593 135.812 14.9805C135.699 15.6508 135.793 16.4628 135.51 16.6233C131.073 19.1441 128.146 23.119 125.143 27.0466C124.209 28.2645 123.038 29.3125 121.971 30.4265L121.981 30.436Z" fill="white"></path><path d="M34.421 112.67C30.9749 118.703 23.299 126.728 20.5894 127.408C21.373 124.708 29.502 115.871 34.421 112.67Z" fill="white"></path><path d="M27.4062 30.0869C32.2591 30.1813 41.4551 36.6015 43.7493 41.4638C38.5188 37.8194 33.2977 34.1845 27.4062 30.0869Z" fill="white"></path></svg> 