<?xml version="1.0" encoding="UTF-8"?> <svg xmlns="http://www.w3.org/2000/svg" width="470" height="482" viewBox="0 0 470 482" fill="none"><path d="M0.772949 80.0791C0.772949 35.8963 36.5902 0.0791016 80.7729 0.0791016H469.018V401.109C469.018 445.292 433.201 481.109 389.018 481.109H0.772949V80.0791Z" fill="#008CB3"></path><mask id="mask0_2634_1309" style="mask-type:alpha" maskUnits="userSpaceOnUse" x="0" y="0" width="470" height="482"><path d="M0.772949 80.0791C0.772949 35.8963 36.5902 0.0791016 80.7729 0.0791016H469.018V401.109C469.018 445.292 433.201 481.109 389.018 481.109H0.772949V80.0791Z" fill="#008CB3"></path></mask><g mask="url(#mask0_2634_1309)"><g style="mix-blend-mode:screen" filter="url(#filter0_f_2634_1309)"><circle cx="454.789" cy="-45.2114" r="218.164" fill="#1EF1FC"></circle></g><g style="mix-blend-mode:screen" filter="url(#filter1_f_2634_1309)"><circle cx="16.7319" cy="458.757" r="218.164" fill="#1EF1FC"></circle></g></g><path d="M393.174 190.367C395.539 199.247 397.876 208.027 400.298 217.119C413.744 214.364 427.063 211.844 441.012 211.093C441.565 213.961 442.124 216.864 442.684 219.774C440.354 217.862 440.835 214.888 439.391 212.445C425.399 213.72 411.549 215.965 397.841 219.371C397.699 219.732 397.522 220.157 397.366 220.56C397.14 220.61 396.864 220.751 396.8 220.68C395.639 219.512 394.3 220.029 393.061 220.348C384.939 222.408 376.825 224.518 368.717 226.621C365.028 227.577 361.353 228.554 357.664 229.524C358.315 232.201 358.953 234.8 359.59 237.405C357.579 235.338 356.864 232.824 356.382 230.162C355.809 229.992 355.221 229.822 354.329 229.567C354.811 229.163 355.044 228.816 355.342 228.738C360.298 227.386 365.248 226.034 370.225 224.752C377.689 222.826 385.166 220.964 392.636 219.059C393.274 218.896 393.875 218.606 394.3 218.45C392.7 214.017 390.951 209.712 389.599 205.28C388.267 200.918 387.34 196.436 386.193 191.847C385.74 191.805 385.18 191.642 384.649 191.706C362.557 194.319 342.624 188.81 325.071 175.278C313.657 166.477 305.45 155.176 300.621 141.46C297.774 133.374 296.309 125.061 296.103 116.564C295.933 109.405 296.981 102.325 298.815 95.3853C301.173 86.4776 304.799 78.1293 309.989 70.4891C310.357 69.951 310.598 69.3208 310.931 68.6764C308.686 65.9149 306.477 63.1959 304.133 60.314C301.131 63.0542 298.837 66.1981 296.613 69.3774C289.766 79.1561 285.68 90.0393 284.052 101.836C281.828 117.924 282.784 133.806 287.741 149.32C292.174 163.191 299.29 175.413 310.548 184.965C318.797 191.961 328.087 197.016 338.411 200.238C344.345 202.093 350.392 203.474 356.559 204.026C361.672 204.48 366.834 204.501 371.967 204.38C376.145 204.281 380.316 203.665 384.493 203.325C385.187 203.269 385.895 203.439 386.596 203.509C386.61 203.729 386.625 203.949 386.639 204.168C383.332 204.699 380.032 205.563 376.704 205.683C370.417 205.924 364.101 206.059 357.834 205.634C353.118 205.315 348.424 204.253 343.8 203.184C335.211 201.187 327.082 197.937 319.548 193.306C306.512 185.291 296.755 174.322 290.488 160.38C286.962 152.542 284.463 144.37 283.096 135.831C281.885 128.269 281.269 120.692 281.559 113.059C282.204 96.1217 286.481 80.3456 296.84 66.6017C298.787 64.0243 300.911 61.5744 303.057 58.9332C301.272 57.0002 299.474 55.0388 297.675 53.0845C297.852 52.9145 298.022 52.7446 298.199 52.5746C300.812 53.481 302.101 56.0301 304.253 57.8923C308.389 54.4794 312.538 50.8965 318.288 50.061C318.365 51.6966 317.218 51.5692 316.524 51.8028C312.439 53.1482 309.104 55.6477 305.96 58.4659C305.762 58.6429 305.648 58.9261 305.372 59.3651C307.397 62.0275 309.451 64.7324 311.702 67.6851C312.665 66.5309 313.572 65.4901 314.429 64.4138C321.913 55.0034 331.068 47.7101 342.015 42.6898C356.035 36.2604 370.629 35.262 385.619 38.1652C386.094 38.2572 386.518 38.6396 387.092 38.9511C386.278 40.0133 385.407 39.6875 384.628 39.5034C378.744 38.0802 372.76 37.8749 366.742 38.066C360.985 38.2431 355.405 39.4468 349.946 41.1603C338.999 44.6016 329.553 50.6133 321.474 58.6712C314.478 65.6458 308.898 73.6542 304.848 82.7531C301.641 89.9543 299.53 97.3821 298.383 105.164C297.173 113.371 297.569 121.464 298.957 129.614C300.139 136.553 302.384 143.089 305.514 149.327C309.968 158.199 316.022 165.847 323.641 172.276C332.223 179.52 341.86 184.752 352.637 187.825C368.965 192.492 385.131 192.152 401.155 186.232C412.802 181.927 422.942 175.363 431.637 166.548C433.811 164.345 435.73 161.888 437.628 159.325C434.328 160.685 431.156 162.271 426.971 160.302C428.522 160.083 429.478 159.821 430.427 159.828C434.109 159.877 436.814 158.128 438.924 155.324C443.215 149.617 444.652 139.733 440.595 133.204C438.364 129.614 433.981 128.226 429.57 130.145C428.189 130.747 427.531 131.908 427.552 133.331C427.587 136.362 426.065 138.571 424.004 140.54C422.142 142.317 420.308 144.123 418.396 145.836C417.093 146.997 416.534 148.414 416.399 150.106C416.222 152.343 416.924 153.314 419.168 153.547C420.683 153.703 422.227 153.632 423.735 153.837C425.874 154.128 427.424 155.31 428.189 157.371C428.317 157.711 428.118 158.171 428.047 158.752C427.587 158.49 427.226 158.405 427.141 158.213C426.065 155.544 423.849 155.062 421.321 155.013C420.096 154.992 418.821 154.935 417.653 154.595C415.564 153.993 414.863 152.924 414.87 150.814C414.877 148.428 415.592 146.332 417.412 144.675C419.175 143.068 420.86 141.382 422.652 139.817C424.592 138.118 425.845 136.192 426.051 133.494C426.306 130.188 427.764 128.913 431.021 128.17C437.67 126.654 441.6 130.775 443.137 135.087C444.694 139.442 444.801 143.854 443.654 148.322C443.491 148.945 443.377 149.582 443.151 150.623C454.119 134.436 458.509 104.449 445.339 80.2111C432.94 57.3896 413.695 43.4262 387.269 38.8591C389.152 37.9386 390.519 38.2076 391.857 38.4201C401.438 39.907 410.133 43.674 418.212 48.8997C429.435 56.1575 438.711 65.3484 445.381 76.9893C450.366 85.6917 453.163 95.1091 454.289 105.086C455.018 111.586 454.955 118.037 454.069 124.488C452.682 134.613 449.276 144.052 444.029 152.811C435.716 166.703 424.139 177.098 409.659 184.172C404.978 186.459 399.908 187.946 395.022 189.794C394.506 189.992 393.967 190.155 393.203 190.41L393.174 190.367ZM388.048 192.718C389.96 201.697 391.652 210.272 396.389 218.004C397.288 217.792 398.074 217.6 398.945 217.395C396.616 208.799 394.343 200.422 392.013 191.862C390.576 192.173 389.407 192.421 388.048 192.718Z" fill="white"></path><path d="M370.02 64.1313C371.471 64.0605 372.357 64.1738 373.164 63.9543C378.404 62.5665 383.622 61.0866 388.855 59.6846C396.722 57.5745 404.702 56.3708 412.866 56.7814C414.254 56.8522 415.691 57.2275 416.987 57.7515C418.856 58.5092 419.734 60.1873 419.628 62.0708C419.536 63.8339 418.226 64.3225 416.902 64.981C415.854 65.505 414.905 66.3335 414.105 67.2044C412.958 68.4648 411.974 69.881 410.94 71.2476C409.014 73.8037 408.115 76.4661 409.113 79.7729C410.352 83.8868 408.823 86.6413 404.751 88.2911C402.988 89.0063 401.126 89.4665 399.335 90.1109C397.996 90.5924 396.665 91.1234 395.405 91.7749C394.18 92.4051 393.755 93.6159 393.826 94.9188C393.896 96.2358 394.796 96.9155 395.985 97.2696C396.807 97.5174 397.614 97.7936 398.435 98.0131C403.604 99.3868 406.769 103.756 406.132 109.031C405.835 111.46 405.29 113.924 404.426 116.211C403.569 118.484 403.845 120.289 405.488 121.946C406.628 123.093 407.846 124.163 409.014 125.281C409.977 126.202 411.004 127.073 411.818 128.114C412.314 128.744 412.654 129.636 412.717 130.436C412.923 132.815 411.294 133.92 409.283 132.681C408.009 131.902 406.968 130.734 405.87 129.686C403.392 127.314 401.055 124.8 398.471 122.555C395.49 119.971 391.914 118.845 387.934 118.781C384.514 118.725 381.073 118.576 377.681 118.158C372.378 117.507 367.896 115.241 364.603 110.836C362.174 107.586 359.186 104.931 355.256 103.607C351.893 102.474 348.452 101.9 344.862 102.439C338.369 103.409 331.861 104.273 325.354 105.165C324.696 105.257 324.016 105.257 323.357 105.221C320.447 105.059 318.557 103.706 317.955 101.391C317.353 99.0823 318.372 96.3208 320.582 94.94C322.104 93.9912 323.81 93.3397 325.425 92.5325C326.947 91.7678 328.555 91.1164 329.957 90.1605C332.031 88.7514 332.803 86.3156 332.152 84.1205C331.72 82.676 330.934 82.2016 329.588 82.8601C328.229 83.5328 327.011 84.4958 325.673 85.2251C324.264 85.9898 322.833 86.7758 321.318 87.2856C319.435 87.9158 317.827 86.8466 317.763 84.864C317.721 83.5894 317.969 82.1662 318.535 81.0333C320.815 76.4236 324.441 73.1735 329.135 71.0564C331.783 69.8597 334.524 69.5623 337.179 70.6315C343.644 73.2302 348.749 71.3467 353.415 66.5671C356.595 63.31 360.064 60.2865 363.697 57.5462C365.17 56.4345 367.386 56.0026 369.312 55.8397C372.3 55.5919 373.107 56.9868 371.939 59.7129C371.415 60.9308 370.877 62.1416 370.013 64.1172L370.02 64.1313ZM411.209 132.058C411.797 129.629 410.487 128.581 409.368 127.505C407.931 126.117 406.415 124.814 404.943 123.469C402.493 121.238 401.785 118.725 403.102 115.503C403.994 113.336 404.61 110.964 404.815 108.634C405.226 103.968 402.351 100.428 397.805 99.316C396.531 99.0044 395.277 98.5017 394.102 97.921C392.756 97.2554 392.282 95.9101 392.409 94.5435C392.587 92.6954 393.252 91.0101 395.221 90.2454C396.729 89.6648 398.23 89.0488 399.745 88.4752C401.607 87.7671 403.562 87.2431 405.339 86.3722C407.874 85.126 408.476 83.5115 407.853 80.7642C407.322 78.4204 406.706 75.928 407.902 73.7542C410.175 69.6331 412.307 65.2855 417.065 63.2604C418.516 62.6444 418.729 61.6035 417.83 60.2935C416.895 58.934 415.479 58.2826 413.921 58.2472C410.395 58.1764 406.84 58.0064 403.342 58.3605C396.417 59.0544 389.698 60.8529 383.013 62.7789C379.721 63.7277 376.428 64.6553 373.114 65.5192C371.896 65.8378 370.629 65.9086 369.638 64.8748C368.554 63.7348 369.191 62.5594 369.638 61.4194C370.112 60.2086 370.636 59.019 371.394 57.2134C369.489 57.3833 368.186 57.3762 366.947 57.6453C364.639 58.148 362.805 59.5501 361.119 61.1291C358.202 63.8623 355.341 66.6663 352.403 69.3782C348.636 72.862 344.317 74.3136 339.24 72.6779C338.333 72.3876 337.42 72.0123 336.485 71.9344C334.8 71.7857 332.966 71.4104 331.415 71.8707C326.161 73.4426 322.288 76.8627 319.789 81.7484C319.088 83.115 318.847 84.6162 320.043 86.4005C321.325 85.827 322.628 85.3455 323.832 84.6728C325.574 83.6957 327.174 82.4636 328.951 81.5572C331.224 80.4031 332.902 81.1749 333.483 83.6319C334.106 86.266 333.879 88.8293 331.557 90.649C330.226 91.6899 328.781 92.922 327.216 93.2548C325.057 93.7079 323.548 95.1383 321.679 95.988C319.852 96.8235 318.939 99.3797 319.413 101.114C319.881 102.828 321.516 103.834 323.924 103.883C324.306 103.89 324.696 103.918 325.071 103.862C328.264 103.38 331.444 102.842 334.637 102.403C338.694 101.851 342.752 101.136 346.83 100.937C351.355 100.718 355.702 101.61 359.611 104.209C362.281 105.979 364.398 108.266 366.373 110.702C369.17 114.136 372.746 116.09 377.101 116.6C379.933 116.933 382.794 117.407 385.626 117.315C393.153 117.075 399.101 119.964 403.888 125.642C405.297 127.314 406.876 128.843 408.476 130.337C409.163 130.981 410.083 131.378 411.188 132.079L411.209 132.058Z" fill="white"></path><path d="M330.07 114.708C332.924 112.662 336.018 112.619 339.204 113.363C340.316 113.625 341.4 113.993 342.476 114.361C344.72 115.126 346.972 114.977 349.245 114.524C350.824 114.205 352.403 113.858 354.003 113.639C357.36 113.171 359.739 114.666 361.226 117.583C362.394 119.87 363.378 122.249 364.49 124.565C365.021 125.676 365.559 126.816 366.26 127.822C367.556 129.67 369.248 130.739 371.649 130.059C373.525 129.528 375.055 130.165 376.159 131.688C377.229 133.154 377.066 134.839 376.266 136.29C375.26 138.117 373.986 139.795 372.789 141.509C372.244 142.288 371.635 143.031 370.997 143.739C368.986 145.956 368.462 148.526 368.93 151.436C369.142 152.732 369.078 154.092 368.986 155.409C368.866 157.193 368.087 158.701 366.636 159.806C365.007 161.052 364.32 162.737 364.157 164.741C364.037 166.256 363.817 167.779 363.548 169.273C363.06 171.978 361.162 173.599 358.386 173.698C354.69 173.826 351.738 172.261 349.373 169.521C346.243 165.895 344.692 161.498 343.396 156.988C342.61 154.247 341.945 151.45 340.939 148.788C339.339 144.532 336.875 143.067 332.329 143.286C330.615 143.371 328.902 143.513 327.188 143.548C319.534 143.704 314.577 136.05 315.739 129.217C315.951 127.963 316.709 126.717 317.473 125.655C319.152 123.325 320.716 120.96 321.552 118.171C322.048 116.521 323.301 115.728 324.937 115.508C325.241 115.466 325.581 115.685 326.594 115.997C323.351 117.023 322.657 119.325 321.75 121.605C321.134 123.163 320.058 124.6 318.975 125.903C316.291 129.125 316.475 132.573 318.068 136.071C319.626 139.498 322.281 141.707 326.155 142.068C327.571 142.203 329.008 142.033 330.438 141.99C331.486 141.955 332.534 141.82 333.575 141.863C338.043 142.026 340.883 144.037 342.334 148.349C343.58 152.045 344.494 155.848 345.705 159.551C346.958 163.367 348.58 166.993 351.674 169.79C353.642 171.567 355.88 172.303 358.471 172.148C360.546 172.02 361.608 171.171 362.097 169.167C362.274 168.43 362.38 167.665 362.423 166.901C362.649 163.261 363.733 160.124 366.586 157.554C367.521 156.711 367.549 154.793 367.839 153.334C367.96 152.718 367.684 152.024 367.584 151.358C367.103 148.193 367.613 145.368 369.865 142.868C371.514 141.035 372.888 138.953 374.276 136.906C374.793 136.149 375.175 135.2 375.31 134.294C375.572 132.481 374.502 131.405 372.676 131.398C372.484 131.398 372.293 131.44 372.109 131.454C367.726 131.773 365.864 130.753 363.966 126.83C362.847 124.515 361.856 122.143 360.801 119.792C358.932 115.621 357.204 114.644 352.757 115.267C351.908 115.388 351.051 115.501 350.222 115.728C347.291 116.535 344.374 116.613 341.492 115.6C338.461 114.538 335.409 114.085 332.216 114.701C331.515 114.835 330.764 114.722 330.042 114.722L330.07 114.708Z" fill="white"></path><path d="M363.513 239.423C363.449 240.025 363.378 240.662 363.223 242.079C362.345 238.892 360.036 240.351 358.408 239.976C358.429 239.777 358.443 239.572 358.464 239.374C359.264 238.97 360.065 238.559 361.02 238.071C361.24 235.67 359.93 233.178 360.992 230.155C362.769 232.704 361.297 235.763 363.364 237.965C367.648 237.03 372.081 236.053 376.513 235.09C381.073 234.099 385.641 233.157 390.186 232.123C394.633 231.117 399.059 230.006 403.498 228.972C407.945 227.938 412.399 226.926 416.86 225.941C421.413 224.936 425.952 223.867 430.533 223.024C434.909 222.217 439.186 220.702 443.76 221.105C437.288 223.222 430.597 224.341 423.99 225.835C417.221 227.365 410.452 228.937 403.682 230.48C397.005 232.003 390.335 233.539 383.651 235.026C376.974 236.513 370.289 237.943 363.513 239.423Z" fill="white"></path><path d="M419.331 191.16C423.622 188.349 427.736 185.651 432.133 182.77C431.128 184.908 430.115 185.857 426.624 188.137C424.486 189.532 422.347 190.927 420.117 192.385C421.229 194.389 422.248 196.216 423.438 198.369C421.377 198.361 421.313 196.931 420.676 196.145C419.968 195.267 419.359 194.304 418.609 193.242C411.903 196.457 405.268 199.671 397.791 201.505C398.11 199.756 399.299 199.813 400.17 199.459C404.751 197.604 409.347 195.784 413.914 193.886C415.125 193.384 416.251 192.654 417.589 191.939C416.293 189.765 415.061 187.698 413.822 185.63C416.406 186.614 417.285 189.135 419.331 191.167V191.16Z" fill="white"></path><path d="M426.561 113.823C428.572 113.887 430.236 114.532 431.807 115.509C433.153 116.344 433.741 117.732 433.677 119.148C433.641 119.878 432.792 120.947 432.077 121.195C429.195 122.186 426.214 123 423.169 121.789C422.397 121.485 421.597 121.06 421.037 120.472C419.211 118.575 419.451 116.557 421.774 115.367C423.247 114.617 424.953 114.319 426.553 113.816L426.561 113.823ZM432.721 119.573C431.198 115.742 427.41 114.418 423.424 116.103C422.432 116.521 421.25 117.066 421.505 118.214C421.696 119.07 422.638 119.885 423.438 120.437C424.004 120.833 424.889 120.848 425.64 120.883C428.04 120.996 430.356 120.607 432.721 119.566V119.573Z" fill="white"></path><path d="M311.582 90.2441C310.952 90.5485 310.258 90.768 309.698 91.1716C308.636 91.9293 307.461 92.6374 306.661 93.6358C305.634 94.9174 305.974 96.8717 307.029 97.4523C308.558 98.2879 310.619 97.4948 311.221 95.7671C311.532 94.882 311.681 93.9402 311.936 92.8994C312.934 94.8466 312.885 96.1919 311.844 97.5656C310.782 98.9747 308.976 99.6049 307.262 99.1659C305.875 98.8119 304.813 97.3461 304.713 95.7388C304.522 92.5453 308.098 88.9907 311.582 90.2582V90.2441Z" fill="white"></path><defs><filter id="filter0_f_2634_1309" x="36.6255" y="-463.375" width="836.327" height="836.327" filterUnits="userSpaceOnUse" color-interpolation-filters="sRGB"><feFlood flood-opacity="0" result="BackgroundImageFix"></feFlood><feBlend mode="normal" in="SourceGraphic" in2="BackgroundImageFix" result="shape"></feBlend><feGaussianBlur stdDeviation="100" result="effect1_foregroundBlur_2634_1309"></feGaussianBlur></filter><filter id="filter1_f_2634_1309" x="-401.432" y="40.5938" width="836.327" height="836.327" filterUnits="userSpaceOnUse" color-interpolation-filters="sRGB"><feFlood flood-opacity="0" result="BackgroundImageFix"></feFlood><feBlend mode="normal" in="SourceGraphic" in2="BackgroundImageFix" result="shape"></feBlend><feGaussianBlur stdDeviation="100" result="effect1_foregroundBlur_2634_1309"></feGaussianBlur></filter></defs></svg> 