<?xml version="1.0" encoding="UTF-8"?> <svg xmlns="http://www.w3.org/2000/svg" width="59" height="58" viewBox="0 0 59 58" fill="none"><rect x="0.858398" y="0.167969" width="57.7139" height="57.7139" rx="14" fill="url(#paint0_linear_2570_5538)"></rect><path d="M37.2013 17.708C34.5497 17.708 31.6942 18.2519 29.7226 19.7477C27.7509 18.2519 24.8954 17.708 22.2439 17.708C20.2722 17.708 18.1782 18.0072 16.4241 18.7822C15.4314 19.2309 14.7651 20.1964 14.7651 21.2978V36.636C14.7651 38.4037 16.4241 39.709 18.1374 39.2739C19.4699 38.934 20.8841 38.7844 22.2439 38.7844C24.3651 38.7844 26.6223 39.1379 28.4444 40.0354C29.2602 40.4433 30.1849 40.4433 30.9872 40.0354C32.8092 39.1243 35.0664 38.7844 37.1877 38.7844C38.5475 38.7844 39.9616 38.934 41.2942 39.2739C43.0075 39.7226 44.6664 38.4172 44.6664 36.636V21.2978C44.6664 20.1964 44.0001 19.2309 43.0075 18.7822C41.267 18.0072 39.1729 17.708 37.2013 17.708ZM41.9605 35.0178C41.9605 35.8745 41.1718 36.5 40.3287 36.3504C39.3089 36.16 38.2483 36.0785 37.2013 36.0785C34.8897 36.0785 31.5583 36.9623 29.7226 38.1181V22.4672C31.5583 21.3114 34.8897 20.4275 37.2013 20.4275C38.4523 20.4275 39.6897 20.5499 40.8727 20.8083C41.4981 20.9443 41.9605 21.5018 41.9605 22.1408V35.0178Z" fill="white"></path><defs><linearGradient id="paint0_linear_2570_5538" x1="6.17845" y1="53.4256" x2="63.9366" y2="4.14569" gradientUnits="userSpaceOnUse"><stop stop-color="#008CB3"></stop><stop offset="1" stop-color="#00F2FE"></stop></linearGradient></defs></svg> 