<?xml version="1.0" encoding="UTF-8"?> <svg xmlns="http://www.w3.org/2000/svg" width="380" height="247" viewBox="0 0 380 247" fill="none"><path d="M380 64.9897C380 29.1336 350.933 0.0664062 315.077 0.0664062H0V181.712C0 217.568 29.0671 246.635 64.9233 246.635H380V64.9897Z" fill="#008CB3"></path><mask id="mask0_2568_4892" style="mask-type:alpha" maskUnits="userSpaceOnUse" x="0" y="0" width="380" height="247"><path d="M380 64.9897C380 29.1336 350.933 0.0664062 315.077 0.0664062H0V181.712C0 217.568 29.0671 246.635 64.9233 246.635H380V64.9897Z" fill="#008CB3"></path></mask><g mask="url(#mask0_2568_4892)"><g style="mix-blend-mode:screen" filter="url(#filter0_f_2568_4892)"><ellipse cx="177.049" cy="111.827" rx="177.049" ry="111.827" transform="matrix(-1 0 0 1 130.125 -148.811)" fill="#1EF1FC"></ellipse></g><g style="mix-blend-mode:screen" filter="url(#filter1_f_2568_4892)"><ellipse cx="177.049" cy="111.827" rx="177.049" ry="111.827" transform="matrix(-1 0 0 1 583.565 161.079)" fill="#1EF1FC"></ellipse></g></g><defs><filter id="filter0_f_2568_4892" x="-345.704" y="-270.542" width="597.559" height="467.118" filterUnits="userSpaceOnUse" color-interpolation-filters="sRGB"><feFlood flood-opacity="0" result="BackgroundImageFix"></feFlood><feBlend mode="normal" in="SourceGraphic" in2="BackgroundImageFix" result="shape"></feBlend><feGaussianBlur stdDeviation="60.8656" result="effect1_foregroundBlur_2568_4892"></feGaussianBlur></filter><filter id="filter1_f_2568_4892" x="107.737" y="39.3479" width="597.559" height="467.118" filterUnits="userSpaceOnUse" color-interpolation-filters="sRGB"><feFlood flood-opacity="0" result="BackgroundImageFix"></feFlood><feBlend mode="normal" in="SourceGraphic" in2="BackgroundImageFix" result="shape"></feBlend><feGaussianBlur stdDeviation="60.8656" result="effect1_foregroundBlur_2568_4892"></feGaussianBlur></filter></defs></svg> 