<?xml version="1.0" encoding="UTF-8"?> <svg xmlns="http://www.w3.org/2000/svg" width="59" height="59" viewBox="0 0 59 59" fill="none"><rect x="0.572266" y="0.487305" width="57.7139" height="57.7139" rx="14" fill="url(#paint0_linear_2571_5)"></rect><path d="M41.0313 27.7682H39.0542V22.4957C39.0542 21.0457 37.8678 19.8594 36.4179 19.8594H31.1454V17.8822C31.1454 16.0632 29.6691 14.5869 27.8501 14.5869C26.0311 14.5869 24.5548 16.0632 24.5548 17.8822V19.8594H19.2822C17.8323 19.8594 16.6592 21.0457 16.6592 22.4957V27.5046H18.6232C20.5872 27.5046 22.1821 29.0995 22.1821 31.0635C22.1821 33.0275 20.5872 34.6224 18.6232 34.6224H16.646V39.6313C16.646 41.0813 17.8323 42.2676 19.2822 42.2676H24.2911V40.2904C24.2911 38.3264 25.8861 36.7314 27.8501 36.7314C29.8141 36.7314 31.409 38.3264 31.409 40.2904V42.2676H36.4179C37.8678 42.2676 39.0542 41.0813 39.0542 39.6313V34.3588H41.0313C42.8504 34.3588 44.3267 32.8825 44.3267 31.0635C44.3267 29.2445 42.8504 27.7682 41.0313 27.7682Z" fill="white"></path><defs><linearGradient id="paint0_linear_2571_5" x1="5.89232" y1="53.7449" x2="63.6505" y2="4.46503" gradientUnits="userSpaceOnUse"><stop stop-color="#008CB3"></stop><stop offset="1" stop-color="#00F2FE"></stop></linearGradient></defs></svg> 