<?xml version="1.0" encoding="UTF-8"?> <svg xmlns="http://www.w3.org/2000/svg" width="980" height="474" viewBox="0 0 980 474" fill="none"><path d="M0.355469 0.208984H900C944.183 0.208984 980 36.0262 980 80.209V473.823H80.3555C36.1727 473.823 0.355469 438.006 0.355469 393.823V0.208984Z" fill="#375A98"></path><mask id="mask0_2649_1341" style="mask-type:alpha" maskUnits="userSpaceOnUse" x="0" y="0" width="980" height="474"><path d="M0.355469 0.208984H900C944.183 0.208984 980 36.0262 980 80.209V473.823H80.3555C36.1727 473.823 0.355469 438.006 0.355469 393.823V0.208984Z" fill="#375A98"></path></mask><g mask="url(#mask0_2649_1341)"><g style="mix-blend-mode:screen" filter="url(#filter0_f_2649_1341)"><ellipse cx="311.199" cy="296.499" rx="311.199" ry="296.499" transform="matrix(-1 0 0 1 1454.16 -355.981)" fill="#1EF1FC"></ellipse></g><g style="mix-blend-mode:screen" filter="url(#filter1_f_2649_1341)"><ellipse cx="311.199" cy="296.499" rx="311.199" ry="296.499" transform="matrix(-1 0 0 1 165.014 299.312)" fill="#1EF1FC"></ellipse></g></g><defs><filter id="filter0_f_2649_1341" x="631.758" y="-555.981" width="1022.4" height="992.997" filterUnits="userSpaceOnUse" color-interpolation-filters="sRGB"><feFlood flood-opacity="0" result="BackgroundImageFix"></feFlood><feBlend mode="normal" in="SourceGraphic" in2="BackgroundImageFix" result="shape"></feBlend><feGaussianBlur stdDeviation="100" result="effect1_foregroundBlur_2649_1341"></feGaussianBlur></filter><filter id="filter1_f_2649_1341" x="-657.385" y="99.3125" width="1022.4" height="992.998" filterUnits="userSpaceOnUse" color-interpolation-filters="sRGB"><feFlood flood-opacity="0" result="BackgroundImageFix"></feFlood><feBlend mode="normal" in="SourceGraphic" in2="BackgroundImageFix" result="shape"></feBlend><feGaussianBlur stdDeviation="100" result="effect1_foregroundBlur_2649_1341"></feGaussianBlur></filter></defs></svg> 