<?xml version="1.0" encoding="UTF-8"?> <svg xmlns="http://www.w3.org/2000/svg" width="59" height="59" viewBox="0 0 59 59" fill="none"><rect x="0.858398" y="0.608398" width="57.7139" height="57.7139" rx="14" fill="url(#paint0_linear_2570_5541)"></rect><path d="M29.7153 29.7194C31.4487 29.7194 32.8668 28.3012 32.8668 26.5679C32.8668 24.8346 31.4487 23.4164 29.7153 23.4164C27.982 23.4164 26.5638 24.8346 26.5638 26.5679C26.5638 28.3012 27.982 29.7194 29.7153 29.7194ZM29.7153 13.9619C36.3335 13.9619 42.3213 19.0358 42.3213 26.883C42.3213 31.8939 38.4607 37.7872 30.7553 44.5786C30.1565 45.0986 29.2584 45.0986 28.6596 44.5786C20.9699 37.7872 17.1094 31.8939 17.1094 26.883C17.1094 19.0358 23.0972 13.9619 29.7153 13.9619Z" fill="white"></path><defs><linearGradient id="paint0_linear_2570_5541" x1="6.17845" y1="53.866" x2="63.9366" y2="4.58612" gradientUnits="userSpaceOnUse"><stop stop-color="#008CB3"></stop><stop offset="1" stop-color="#00F2FE"></stop></linearGradient></defs></svg> 