<?xml version="1.0" encoding="UTF-8"?> <svg xmlns="http://www.w3.org/2000/svg" width="59" height="58" viewBox="0 0 59 58" fill="none"><rect x="0.572266" y="0.167969" width="57.7139" height="57.7139" rx="14" fill="url(#paint0_linear_2570_5537)"></rect><path d="M20.6943 14.4668C19.0929 14.4668 17.7973 15.777 17.7973 17.3784L17.7827 40.6714C17.7827 42.2728 19.0784 43.583 20.6798 43.583H38.1641C39.7655 43.583 41.0757 42.2728 41.0757 40.6714V24.41C41.0757 23.6384 40.77 22.8959 40.2168 22.3573L33.1852 15.3257C32.6465 14.7725 31.9041 14.4668 31.1325 14.4668H20.6943ZM30.885 23.2017V16.6505L38.892 24.6575H32.3408C31.5401 24.6575 30.885 24.0024 30.885 23.2017Z" fill="white"></path><defs><linearGradient id="paint0_linear_2570_5537" x1="5.89232" y1="53.4256" x2="63.6505" y2="4.14569" gradientUnits="userSpaceOnUse"><stop stop-color="#008CB3"></stop><stop offset="1" stop-color="#00F2FE"></stop></linearGradient></defs></svg> 