<?xml version="1.0" encoding="UTF-8"?> <svg xmlns="http://www.w3.org/2000/svg" width="58" height="59" viewBox="0 0 58 59" fill="none"><path d="M11.4489 26.4116C9.15917 19.1236 5.23594 12.9805 5.33367 4.75705C7.97242 5.44117 9.91311 5.79024 11.7281 6.44644C14.0178 7.27017 16.2796 8.21959 18.4158 9.35048C22.7997 11.6681 26.2342 10.5651 29.3756 6.97698C31.0929 5.00839 33.0475 3.1654 35.1837 1.68547C36.4262 0.833811 38.5764 0.135742 39.7352 0.652323C40.7823 1.12702 41.4664 3.31904 41.5641 4.79897C41.8015 8.16373 41.6619 11.5564 41.5362 14.9351C41.4106 18.1044 42.5554 20.3243 45.5292 21.6646C48.7683 23.1305 52.0214 24.6245 55.079 26.4116C56.3774 27.1655 58.0807 28.799 57.997 29.9159C57.9132 31.0887 56.0703 32.457 54.702 33.1411C52.7195 34.1324 50.4856 34.6908 48.3216 35.2633C41.243 37.1062 40.2238 38.2091 39.4559 45.525C39.1348 48.5128 39.1348 51.5425 38.5624 54.4744C38.2832 55.9125 37.25 57.9509 36.1331 58.286C34.9184 58.649 32.6566 57.7694 31.805 56.6943C29.5013 53.7903 27.4908 50.5931 25.7316 47.3121C23.1208 42.4255 23.051 42.2161 17.4803 42.7746C13.7526 43.1515 10.0248 43.5844 6.29703 44.0591C4.21675 44.3244 1.6618 44.8689 0.963718 42.4814C0.572792 41.1271 1.82931 39.005 2.84851 37.5809C5.55706 33.7693 8.53092 30.1533 11.4349 26.4255L11.4489 26.4116ZM38.716 2.73259C35.1976 5.81811 32.5868 7.88443 30.2552 10.23C26.4018 14.0974 22.2412 14.5721 17.4384 12.1567C14.7438 10.8024 11.9515 9.50401 8.29358 8.778C9.45239 12.2684 10.3319 14.9211 11.2255 17.5738C11.5326 18.4534 11.8817 19.333 12.2307 20.1986C14.2412 25.0991 12.7333 29.3296 9.78744 33.3226C8.11204 35.5983 6.54836 37.9578 4.17488 41.3784C9.1871 40.8339 12.6915 40.3173 16.2098 40.0939C24.9358 39.5355 24.4472 39.1306 28.6217 46.5582C29.7247 48.5128 30.5903 50.621 31.8329 52.4779C32.5728 53.5809 33.8294 54.3209 35.6444 55.8985C36.147 51.6681 36.6357 48.5547 36.873 45.4133C37.5432 36.6315 38.8137 35.0119 47.3582 32.4988C49.606 31.8426 51.812 31.0887 55.1348 30.0415C50.8765 27.7239 47.7491 25.7553 44.3983 24.2894C39.9585 22.3347 38.353 19.1236 38.6462 14.4464C38.8695 10.97 38.688 7.46561 38.688 2.76054L38.716 2.73259Z" fill="white"></path></svg> 