<?xml version="1.0" encoding="UTF-8"?> <svg xmlns="http://www.w3.org/2000/svg" width="104" height="21" viewBox="0 0 104 21" fill="none"><path fill-rule="evenodd" clip-rule="evenodd" d="M12.5674 0.697266C13.6361 0.697266 14.7324 0.724766 15.7949 0.769766L17.0499 0.829766L18.2511 0.901016L19.3761 0.977266L20.4036 1.05727C21.5189 1.14213 22.5684 1.61781 23.3673 2.40052C24.1663 3.18323 24.6634 4.22276 24.7711 5.33602L24.8211 5.86727L24.9149 7.00477C25.0024 8.18352 25.0674 9.46852 25.0674 10.6973C25.0674 11.926 25.0024 13.211 24.9149 14.3898L24.8211 15.5273L24.7711 16.0585C24.6634 17.172 24.1661 18.2117 23.3669 18.9944C22.5677 19.7771 21.5178 20.2527 20.4024 20.3373L19.3774 20.416L18.2524 20.4935L17.0499 20.5648L15.7949 20.6248C14.7197 20.6713 13.6436 20.6955 12.5674 20.6973C11.4912 20.6955 10.4151 20.6713 9.33988 20.6248L8.08488 20.5648L6.88363 20.4935L5.75863 20.416L4.73113 20.3373C3.6159 20.2524 2.56638 19.7767 1.76744 18.994C0.968493 18.2113 0.471371 17.1718 0.363633 16.0585L0.313633 15.5273L0.219883 14.3898C0.124674 13.1612 0.0738074 11.9295 0.0673828 10.6973C0.0673828 9.46852 0.132383 8.18352 0.219883 7.00477L0.313633 5.86727L0.363633 5.33602C0.471329 4.22296 0.968272 3.18358 1.76696 2.4009C2.56565 1.61821 3.61487 1.14241 4.72988 1.05727L5.75613 0.977266L6.88113 0.901016L8.08363 0.829766L9.33863 0.769766C10.4143 0.723175 11.4907 0.699003 12.5674 0.697266ZM10.0674 7.66602V13.7285C10.0674 14.306 10.6924 14.666 11.1924 14.3785L16.4424 11.3473C16.5566 11.2815 16.6515 11.1868 16.7175 11.0727C16.7835 10.9586 16.8182 10.8291 16.8182 10.6973C16.8182 10.5654 16.7835 10.436 16.7175 10.3218C16.6515 10.2077 16.5566 10.113 16.4424 10.0473L11.1924 7.01727C11.0783 6.95142 10.949 6.91676 10.8173 6.91679C10.6856 6.91681 10.5562 6.9515 10.4422 7.01739C10.3281 7.08327 10.2335 7.17802 10.1677 7.2921C10.1019 7.40618 10.0673 7.53557 10.0674 7.66727V7.66602Z" fill="#9BACCB"></path><path opacity="0.5" d="M99.8074 17.0513C97.0534 17.0513 95.2534 15.1613 95.2534 12.3533C95.2534 9.56327 97.0174 7.65527 99.6094 7.65527C102.201 7.65527 103.893 9.29327 103.965 12.0113C103.965 12.2093 103.947 12.4253 103.929 12.6413H96.8014V12.7673C96.8554 14.5133 97.9534 15.7373 99.6994 15.7373C100.995 15.7373 102.003 15.0533 102.309 13.8653H103.803C103.443 15.7013 101.931 17.0513 99.8074 17.0513ZM96.8914 11.4173H102.381C102.237 9.83327 101.157 8.95127 99.6274 8.95127C98.2774 8.95127 97.0354 9.92327 96.8914 11.4173Z" fill="white"></path><path opacity="0.5" d="M89.8408 7.65526C92.3788 7.65526 94.2508 9.36526 94.2508 12.3533C94.2508 15.1613 92.3788 17.0513 89.8408 17.0513C88.2928 17.0513 87.2488 16.4213 86.6908 15.5393L86.4928 16.9433H85.2148V4.34326H86.6908V9.23926C87.3028 8.39326 88.2928 7.65526 89.8408 7.65526ZM89.6968 15.7373C91.5148 15.7373 92.7388 14.3513 92.7388 12.3533C92.7388 10.3553 91.5148 8.96926 89.6968 8.96926C87.8968 8.96926 86.6728 10.3553 86.6728 12.3173C86.6728 14.3333 87.8968 15.7373 89.6968 15.7373Z" fill="white"></path><path opacity="0.5" d="M82.0867 12.3532V7.76318H83.5627V16.9432H82.2847L82.0867 15.7192C81.5467 16.4032 80.6647 17.0512 79.1527 17.0512C77.1367 17.0512 75.5347 15.9172 75.5347 12.8752V7.76318H77.0107V12.7852C77.0107 14.6932 77.8747 15.7012 79.4047 15.7012C81.0787 15.7012 82.0867 14.4232 82.0867 12.3532Z" fill="white"></path><path opacity="0.5" d="M65.6519 5.78326V4.34326H75.3899V5.78326H71.3039V16.9433H69.7379V5.78326H65.6519Z" fill="white"></path><path opacity="0.5" d="M63.1721 12.3532V7.76318H64.6481V16.9432H63.3701L63.1721 15.7192C62.6321 16.4032 61.7501 17.0512 60.2381 17.0512C58.2221 17.0512 56.6201 15.9172 56.6201 12.8752V7.76318H58.0961V12.7852C58.0961 14.6932 58.9601 15.7012 60.4901 15.7012C62.1641 15.7012 63.1721 14.4232 63.1721 12.3532Z" fill="white"></path><path opacity="0.5" d="M50.8597 17.0513C48.1777 17.0513 46.3057 15.1433 46.3057 12.3533C46.3057 9.56327 48.1777 7.65527 50.8597 7.65527C53.5417 7.65527 55.4137 9.56327 55.4137 12.3533C55.4137 15.1433 53.5417 17.0513 50.8597 17.0513ZM50.8597 15.7373C52.6777 15.7373 53.9017 14.3153 53.9017 12.3533C53.9017 10.3913 52.6777 8.96927 50.8597 8.96927C49.0417 8.96927 47.8177 10.3913 47.8177 12.3533C47.8177 14.3153 49.0417 15.7373 50.8597 15.7373Z" fill="white"></path><path opacity="0.5" d="M41.0694 12.2813L36.3174 4.34326H38.1534L41.8614 10.5893L45.6234 4.34326H47.3874L42.6354 12.2813V16.9433H41.0694V12.2813Z" fill="white"></path></svg> 