<?xml version="1.0" encoding="UTF-8"?> <svg xmlns="http://www.w3.org/2000/svg" width="111" height="23" viewBox="0 0 111 23" fill="none"><path opacity="0.5" d="M107.493 8.15332C109.401 8.15332 110.967 9.25132 110.967 12.1493V17.4413H109.491V12.2393C109.491 10.4393 108.699 9.50332 107.313 9.50332C105.783 9.50332 104.847 10.6553 104.847 12.5273V17.4413H103.371V12.2393C103.371 10.4393 102.561 9.50332 101.157 9.50332C99.6455 9.50332 98.7275 10.7633 98.7275 12.5993V17.4413H97.2515V8.26132H98.5295L98.7275 9.52132C99.2135 8.85532 99.9875 8.15332 101.409 8.15332C102.687 8.15332 103.785 8.72932 104.307 9.89932C104.865 8.90932 105.855 8.15332 107.493 8.15332Z" fill="white"></path><path opacity="0.5" d="M96.0088 16.0913H96.4768V17.4413H95.6668C94.4428 17.4413 94.0288 16.9193 94.0108 16.0193C93.4348 16.8473 92.5168 17.5493 90.9328 17.5493C88.9168 17.5493 87.5488 16.5413 87.5488 14.8673C87.5488 13.0313 88.8268 12.0053 91.2388 12.0053H93.9388V11.3753C93.9388 10.1873 93.0928 9.46732 91.6528 9.46732C90.3568 9.46732 89.4928 10.0793 89.3128 11.0153H87.8368C88.0528 9.21532 89.5108 8.15332 91.7248 8.15332C94.0648 8.15332 95.4148 9.32332 95.4148 11.4653V15.4793C95.4148 15.9653 95.5948 16.0913 96.0088 16.0913ZM93.9388 13.6973V13.2473H91.0948C89.7808 13.2473 89.0428 13.7333 89.0428 14.7773C89.0428 15.6773 89.8168 16.2893 91.0408 16.2893C92.8768 16.2893 93.9388 15.2273 93.9388 13.6973Z" fill="white"></path><path opacity="0.5" d="M86.874 8.26123H87.288V9.70123H86.55C84.624 9.70123 84.102 11.3032 84.102 12.7612V17.4412H82.626V8.26123H83.904L84.102 9.64723C84.534 8.94523 85.236 8.26123 86.874 8.26123Z" fill="white"></path><path opacity="0.5" d="M79.499 9.84532L79.697 8.26132H80.975V16.9913C80.975 19.6373 79.571 21.1493 76.421 21.1493C74.081 21.1493 72.443 20.0513 72.209 18.0353H73.721C73.973 19.1873 74.999 19.8353 76.529 19.8353C78.455 19.8353 79.499 18.9353 79.499 16.9373V15.8573C78.887 16.9013 77.897 17.5493 76.349 17.5493C73.811 17.5493 71.939 15.8393 71.939 12.8513C71.939 10.0433 73.811 8.15332 76.349 8.15332C77.897 8.15332 78.923 8.81932 79.499 9.84532ZM76.493 16.2353C78.293 16.2353 79.517 14.8493 79.517 12.8873C79.517 10.8713 78.293 9.46732 76.493 9.46732C74.675 9.46732 73.451 10.8533 73.451 12.8513C73.451 14.8493 74.675 16.2353 76.493 16.2353Z" fill="white"></path><path opacity="0.5" d="M71.0205 16.0913H71.4885V17.4413H70.6785C69.4545 17.4413 69.0405 16.9193 69.0225 16.0193C68.4465 16.8473 67.5285 17.5493 65.9445 17.5493C63.9285 17.5493 62.5605 16.5413 62.5605 14.8673C62.5605 13.0313 63.8385 12.0053 66.2505 12.0053H68.9505V11.3753C68.9505 10.1873 68.1045 9.46732 66.6645 9.46732C65.3685 9.46732 64.5045 10.0793 64.3245 11.0153H62.8485C63.0645 9.21532 64.5225 8.15332 66.7365 8.15332C69.0765 8.15332 70.4265 9.32332 70.4265 11.4653V15.4793C70.4265 15.9653 70.6065 16.0913 71.0205 16.0913ZM68.9505 13.6973V13.2473H66.1065C64.7925 13.2473 64.0545 13.7333 64.0545 14.7773C64.0545 15.6773 64.8285 16.2893 66.0525 16.2893C67.8885 16.2893 68.9505 15.2273 68.9505 13.6973Z" fill="white"></path><path opacity="0.5" d="M58.1282 15.0475V9.6115H56.4722V8.2615H58.1282V5.6875H59.6042V8.2615H61.9802V9.6115H59.6042V15.0295C59.6042 15.8035 59.8742 16.0915 60.6662 16.0915H62.1242V17.4415H60.5222C58.7582 17.4415 58.1282 16.6675 58.1282 15.0475Z" fill="white"></path><path opacity="0.5" d="M48.4438 14.4175H49.9558C50.0098 15.4975 50.9638 16.2895 52.4938 16.2895C53.7898 16.2895 54.7078 15.7315 54.7078 14.8855C54.7078 13.7335 53.6998 13.6435 52.3318 13.4815C50.2798 13.2295 48.6418 12.8155 48.6418 10.9075C48.6418 9.23354 50.1718 8.13554 52.2418 8.15354C54.3298 8.17154 55.8418 9.14354 55.9858 11.0515H54.4738C54.3658 10.1155 53.5018 9.41354 52.2418 9.41354C50.9638 9.41354 50.0998 9.95354 50.0998 10.7995C50.0998 11.8075 51.0718 11.9335 52.4038 12.0955C54.4918 12.3475 56.1658 12.7435 56.1658 14.7775C56.1658 16.4875 54.5278 17.5495 52.4938 17.5495C50.1178 17.5495 48.4798 16.4335 48.4438 14.4175Z" fill="white"></path><path opacity="0.5" d="M43.5918 8.15332C45.6618 8.15332 47.2998 9.28732 47.2998 12.3293V17.4413H45.8238V12.4193C45.8238 10.5113 44.9418 9.50332 43.3398 9.50332C41.6118 9.50332 40.5678 10.7813 40.5678 12.8513V17.4413H39.0918V8.26132H40.3698L40.5678 9.50332C41.1078 8.80132 42.0438 8.15332 43.5918 8.15332Z" fill="white"></path><path opacity="0.5" d="M35.6602 17.4413V4.84131H37.2262V17.4413H35.6602Z" fill="white"></path><path d="M16.9102 0.314453C18.5678 0.314453 20.1575 0.972933 21.3296 2.14504C22.5017 3.31714 23.1602 4.90685 23.1602 6.56445V16.5645C23.1602 18.2221 22.5017 19.8118 21.3296 20.9839C20.1575 22.156 18.5678 22.8145 16.9102 22.8145H6.91016C5.25255 22.8145 3.66284 22.156 2.49074 20.9839C1.31864 19.8118 0.660156 18.2221 0.660156 16.5645V6.56445C0.660156 4.90685 1.31864 3.31714 2.49074 2.14504C3.66284 0.972933 5.25255 0.314453 6.91016 0.314453H16.9102ZM11.9102 6.56445C10.5841 6.56445 9.3123 7.09124 8.37462 8.02892C7.43694 8.9666 6.91016 10.2384 6.91016 11.5645C6.91016 12.8905 7.43694 14.1623 8.37462 15.1C9.3123 16.0377 10.5841 16.5645 11.9102 16.5645C13.2362 16.5645 14.508 16.0377 15.4457 15.1C16.3834 14.1623 16.9102 12.8905 16.9102 11.5645C16.9102 10.2384 16.3834 8.9666 15.4457 8.02892C14.508 7.09124 13.2362 6.56445 11.9102 6.56445ZM11.9102 9.06445C12.5732 9.06445 13.2091 9.32785 13.6779 9.79669C14.1468 10.2655 14.4102 10.9014 14.4102 11.5645C14.4102 12.2275 14.1468 12.8634 13.6779 13.3322C13.2091 13.8011 12.5732 14.0645 11.9102 14.0645C11.2471 14.0645 10.6112 13.8011 10.1424 13.3322C9.67355 12.8634 9.41016 12.2275 9.41016 11.5645C9.41016 10.9014 9.67355 10.2655 10.1424 9.79669C10.6112 9.32785 11.2471 9.06445 11.9102 9.06445ZM17.5352 4.68945C17.2036 4.68945 16.8857 4.82115 16.6513 5.05557C16.4169 5.28999 16.2852 5.60793 16.2852 5.93945C16.2852 6.27097 16.4169 6.58892 16.6513 6.82334C16.8857 7.05776 17.2036 7.18945 17.5352 7.18945C17.8667 7.18945 18.1846 7.05776 18.419 6.82334C18.6535 6.58892 18.7852 6.27097 18.7852 5.93945C18.7852 5.60793 18.6535 5.28999 18.419 5.05557C18.1846 4.82115 17.8667 4.68945 17.5352 4.68945Z" fill="#9BACCB"></path></svg> 