<?xml version="1.0" encoding="UTF-8"?> <svg xmlns="http://www.w3.org/2000/svg" width="129" height="131" viewBox="0 0 129 131" fill="none"><path d="M46.1186 46.227C47.7397 41.9865 50.7568 38.6767 53.5488 35.2468C59.9433 27.3813 67.9364 21.4071 76.7325 16.5062C86.9847 10.7947 98.1224 7.66505 109.62 5.69117C112.097 5.26337 114.634 5.18831 117.141 4.92563C119.587 4.67045 121.899 4.05502 123.73 2.24625C124.151 1.83346 124.698 1.45071 125.254 1.2931C125.959 1.09045 127.04 0.790243 127.415 1.12798C128.076 1.7284 128.504 2.74161 128.669 3.64974C128.781 4.25016 128.406 5.05321 128.038 5.62361C125.254 9.88659 125.044 14.81 124.623 19.5984C123.97 27.0211 122.057 34.0535 119.145 40.8757C114.649 51.4206 108.3 60.7496 100.186 68.7652C95.4656 73.426 90.0918 77.4413 84.9057 81.6217C83.7274 82.5749 83.0969 83.513 83.3972 84.9315C85.0633 92.9246 81.9411 99.5217 77.4905 105.804C74.2408 110.382 70.0303 114.014 66.0526 117.887C63.6659 120.214 61.2867 122.548 58.87 124.844C58.4872 125.212 57.9394 125.415 57.1438 125.88C57.5791 122.638 58.187 119.823 58.2771 116.986C58.3747 113.977 58.0219 110.952 57.7742 107.943C57.5341 105.068 57.1588 102.201 56.8211 99.1315C53.7064 100.362 50.937 101.451 48.2201 102.524C45.9685 101.218 43.792 100.145 41.8256 98.7712C37.9979 96.0993 34.4855 93.0747 31.8962 89.0894C30.5752 87.0555 29.1643 85.0741 27.6632 83.1753C26.9277 82.2371 26.7701 81.4416 27.333 80.4284C28.3087 78.6797 29.2618 76.9159 30.4326 74.7694C22.0343 73.471 13.9361 73.2234 5.76291 75.5575C5.22254 73.4335 6.23574 72.0375 7.09133 70.7992C9.08773 67.8871 11.1517 64.9901 13.4708 62.3482C17.9664 57.2372 23.025 52.749 29.1492 49.6269C32.8944 47.713 36.8872 46.7298 41.0826 46.5347C42.7938 46.4521 44.505 46.2645 46.2162 46.1219C45.8709 46.6473 45.6233 47.4804 45.1579 47.6305C44.1222 47.9607 42.9739 48.0583 41.8706 48.0583C37.1048 48.0433 32.7367 49.4017 28.6164 51.7133C22.2594 55.2783 17.1484 60.2693 12.5551 65.8307C10.6713 68.1123 8.72747 70.3939 7.53414 73.3134C16.0526 71.6247 24.3159 71.9099 32.9694 73.5761C31.3708 76.4206 29.9523 78.9423 28.6539 81.2464C33.3297 89.9826 39.9193 96.4746 48.2051 101.225C51.3648 100.092 54.1042 97.9381 57.7367 97.1651C59.4329 105.256 60.2585 113.076 60.0408 121.137C64.9492 116.716 69.7451 112.386 74.0456 107.612C78.0534 103.162 81.2657 98.0732 82.0312 91.9114C82.3314 89.5247 82.4139 87.0855 82.2939 84.6839C82.1813 82.4023 83.0594 81.0063 84.8907 79.6779C99.0981 69.3506 110.649 56.7794 117.591 40.3804C120.36 33.8358 122.522 27.1862 122.965 20.0037C123.295 14.6749 123.888 9.33872 126.71 4.56538C127.01 4.05503 126.95 3.32701 127.123 2.32881C126.177 2.68906 125.494 2.74161 125.134 3.10936C122.469 5.85628 119.055 6.53175 115.467 6.72688C109.696 7.04211 104.067 8.11536 98.4977 9.66144C89.4989 12.1532 80.8754 15.448 72.9724 20.529C63.7709 26.4432 55.9129 33.7157 49.6986 42.7596C48.7755 44.103 47.3119 45.0862 46.0961 46.2345L46.1186 46.227Z" fill="white"></path><path d="M10.4159 102.741C7.60144 103.342 4.79448 103.942 1.36458 104.67C3.46605 100.482 5.97281 97.5101 8.94489 94.9433C10.3033 93.7725 11.8344 92.7142 13.4555 91.9562C18.394 89.6521 23.1373 90.6428 27.5429 93.4347C32.3838 96.5044 36.1814 100.67 39.3261 105.451C39.4912 105.706 39.5738 106.029 39.7839 106.224C42.4633 108.678 41.6452 111.402 40.5044 114.224C38.3579 119.545 30.3273 127.133 23.5501 128.019C24.811 126.398 26.0793 125.054 26.995 123.493C27.9406 121.887 28.5336 120.078 29.0439 118.112C20.0902 123.651 11.1139 128.859 0.15625 130.563C0.621575 125.34 2.23518 120.709 3.98391 116.198C5.76265 111.62 8.20186 107.304 10.4159 102.734V102.741ZM29.6369 123.899C30.3649 123.403 31.1529 122.975 31.8209 122.405C35.4609 119.29 38.7482 115.95 39.874 111.02C40.2493 109.376 39.934 108.04 38.8983 106.817C37.067 104.663 35.3859 102.343 33.3294 100.437C30.7551 98.0505 28.0232 95.7538 25.0586 93.8925C21.8239 91.8511 18.0563 91.701 14.5363 93.1495C10.3259 94.8908 7.4063 98.2156 4.89955 101.871C5.00462 102.073 5.10219 102.276 5.20726 102.471C8.68219 101.353 12.1571 100.227 16.3976 98.861C8.35196 107.62 4.2466 117.459 2.09259 128.664C12.8551 126.3 21.6738 120.971 30.3423 114.795C31.273 118.165 29.9445 120.836 29.6443 123.899H29.6369Z" fill="white"></path><path d="M96.8764 41.6191C92.9212 41.604 89.4537 38.7445 88.9509 35.082C88.463 31.577 91.4877 26.6986 94.7825 25.7455C96.8764 25.1375 98.7753 25.6104 100.374 27.0889C101.094 27.7494 101.74 28.2522 102.776 28.59C104.644 29.2054 105.2 31.1567 105.29 33.0256C105.492 37.3636 101.259 41.6416 96.8764 41.6266V41.6191ZM103.819 33.2282C103.804 29.8358 99.3832 27.1189 96.3661 27.1414C93.5066 27.164 90.587 30.7665 90.5645 34.1588C90.542 37.3561 93.4691 40.0355 96.9515 40.0129C100.344 39.9829 103.886 36.4855 103.819 33.2282Z" fill="white"></path></svg> 