<?xml version="1.0" encoding="UTF-8"?> <svg xmlns="http://www.w3.org/2000/svg" width="194" height="119" viewBox="0 0 194 119" fill="none"><path d="M94.3611 44.5761C40.9411 51.2061 -1.29895 67.2461 0.0310537 80.3961C1.36105 93.5361 45.7411 98.8261 99.1611 92.1861C152.581 85.5561 194.821 69.5161 193.491 56.3661C192.161 43.2161 147.781 37.9361 94.3611 44.5661V44.5761ZM97.681 86.0661C64.961 90.1261 29.5711 88.3661 28.4411 77.1061C27.3111 65.8461 61.471 55.4561 94.181 51.3861C126.901 47.3261 162.281 49.0861 163.421 60.3461C164.561 71.6061 130.391 82.0061 97.681 86.0661Z" fill="#FFC585"></path><path d="M154.891 59.6665C154.891 92.1265 128.581 118.436 96.1211 118.436C63.6611 118.436 37.3511 92.1265 37.3511 59.6665C37.3511 27.2065 63.6611 0.896484 96.1211 0.896484C128.581 0.896484 154.891 27.2065 154.891 59.6665Z" fill="#F7941E"></path><path d="M122.491 28.9669C119.671 28.1869 116.741 27.8769 113.871 27.3769C107.381 26.2469 100.791 24.8169 94.1607 24.9969C90.9707 25.0869 75.6807 26.1469 77.9807 32.4369C78.7307 34.4869 81.7007 35.1769 83.5007 35.8569C88.0807 37.5769 93.0707 38.3669 97.9407 37.6769C101.151 37.2169 104.171 35.7869 107.431 35.6569C111.201 35.5069 114.981 35.4569 118.751 35.4169C119.561 35.4169 122.551 35.6269 125.161 35.4169C127.611 35.2169 129.721 34.6569 129.411 33.1869C128.891 30.7669 124.491 29.5169 122.491 28.9669Z" fill="#FBB040"></path><path d="M143.821 25.3465C133.151 10.5465 115.771 0.896484 96.1207 0.896484C79.0707 0.896484 63.7207 8.16649 52.9907 19.7665C65.9107 19.2865 78.9307 19.1565 91.5607 16.2165C95.0007 15.4165 98.4507 14.3565 102.041 14.4665C110.221 14.7165 117.691 18.3465 125.151 21.1965C130.221 23.1365 137.591 25.9065 143.821 25.3465Z" fill="#E05B41"></path><path d="M140.001 69.9567C137.811 69.7267 135.431 69.1068 133.231 69.5968C131.711 69.9368 128.831 71.6667 131.021 73.3067C131.611 73.7467 133.241 73.8367 133.961 73.9767C138.701 74.8867 143.651 75.6367 148.441 76.1967C149.771 76.3567 151.101 76.4467 152.431 76.4967C153.081 74.3067 153.611 72.0568 154.011 69.7668C149.361 70.2868 144.661 70.4467 140.001 69.9467V69.9567Z" fill="#E05B41"></path><path d="M142.341 83.847C140.001 83.787 117.051 79.7369 116.291 82.6169C115.651 85.0669 113.751 90.877 113.111 92.417C112.471 93.9469 106.761 95.7869 106.761 95.7869C106.761 95.7869 103.581 95.4769 99.1407 96.3969C84.6007 99.3969 70.8607 77.367 57.2107 87.217C54.6707 89.057 48.6307 88.447 46.0907 89.357C45.8807 89.437 45.6907 89.487 45.5107 89.527C55.7407 106.827 74.5707 118.437 96.1207 118.437C119.691 118.437 140.001 104.557 149.371 84.5369C147.241 84.1669 144.901 83.907 142.341 83.847Z" fill="#E05B41"></path><path d="M83.731 71.9868C80.381 71.9068 76.831 71.0168 73.511 71.8268C71.551 72.3068 68.281 73.9968 71.161 75.8568C72.941 77.0068 75.561 76.4068 77.561 76.8168C80.091 77.3268 82.471 78.3768 84.811 79.4368C89.911 81.7468 94.551 83.8068 100.331 82.3568C104.181 81.3968 107.681 80.6268 110.181 77.2568C111.571 75.3868 112.161 72.2868 114.171 70.9368C111.431 69.3468 107.931 70.5168 105.061 71.1168C98.091 72.5568 90.791 72.1468 83.721 71.9868H83.731Z" fill="#FBB040"></path><path d="M53.5608 35.9565C55.7608 35.8465 58.2008 36.0865 60.3008 35.2565C61.7508 34.6865 64.3308 32.5265 61.9008 31.2465C61.2508 30.9065 59.6308 31.0665 58.8908 31.0465C54.2408 30.8865 49.4208 30.9165 44.7608 31.0865C43.5508 33.2565 42.4808 35.5165 41.5508 37.8465C45.4908 36.8565 49.4908 36.1665 53.5508 35.9665L53.5608 35.9565Z" fill="#F15A29"></path><path d="M40.6909 56.9162C44.8209 57.8362 45.1409 57.2262 50.5409 58.7562C55.9409 60.2862 64.2009 60.2863 65.4709 60.5963C66.7409 60.9063 69.2809 60.9062 70.2409 60.9062H100.731C102.001 60.9062 110.261 60.2963 112.801 59.9863C115.341 59.6763 121.691 59.3763 121.691 59.3763C121.691 59.3763 122.331 59.3762 129.001 58.4562C135.671 57.5362 142.981 56.3163 145.831 57.8463C147.421 58.6963 151.441 59.0762 154.881 59.3962C154.861 56.1362 154.571 52.9362 154.051 49.8162L139.161 45.9062L124.231 47.1263C124.231 47.1263 115.971 51.4062 113.751 52.0262C111.531 52.6362 108.351 52.3362 106.761 52.3362C105.171 52.3362 96.6009 51.7262 96.6009 51.7262C96.6009 51.7262 90.2509 50.1962 84.5309 50.1962C78.8109 50.1962 65.7909 49.5862 63.8809 50.1962C61.9709 50.8062 57.5309 50.8062 56.5709 50.8062H38.0209C37.7309 52.6962 37.5409 54.6062 37.4409 56.5462C38.2809 56.5062 39.2509 56.6062 40.7009 56.9262L40.6909 56.9162Z" fill="#F15A29"></path><path d="M78.0612 42.2562C78.0612 43.7162 74.7512 44.8962 70.6812 44.8962C66.6112 44.8962 63.3013 43.7162 63.3013 42.2562C63.3013 40.7962 66.6112 39.6162 70.6812 39.6162C74.7512 39.6162 78.0612 40.7962 78.0612 42.2562Z" fill="#FBB040"></path><path d="M140.621 63.4964C140.621 64.4264 138.511 65.1764 135.911 65.1764C133.311 65.1764 131.201 64.4264 131.201 63.4964C131.201 62.5664 133.311 61.8164 135.911 61.8164C138.511 61.8164 140.621 62.5664 140.621 63.4964Z" fill="#FBB040"></path><path d="M56.6012 67.1663C56.6012 68.0963 54.4912 68.8463 51.8912 68.8463C49.2912 68.8463 47.1812 68.0963 47.1812 67.1663C47.1812 66.2363 49.2912 65.4863 51.8912 65.4863C54.4912 65.4863 56.6012 66.2363 56.6012 67.1663Z" fill="#FBB040"></path><path d="M145.761 39.0867C145.761 39.8867 143.941 40.5367 141.701 40.5367C139.461 40.5367 137.641 39.8867 137.641 39.0867C137.641 38.2867 139.461 37.6367 141.701 37.6367C143.941 37.6367 145.761 38.2867 145.761 39.0867Z" fill="#FBB040"></path><path d="M109.801 88.9764C109.801 89.7764 107.981 90.4264 105.741 90.4264C103.501 90.4264 101.681 89.7764 101.681 88.9764C101.681 88.1764 103.501 87.5264 105.741 87.5264C107.981 87.5264 109.801 88.1764 109.801 88.9764Z" fill="#FBB040"></path><path d="M62.5111 24.2361C62.5111 25.0361 60.6911 25.6861 58.4511 25.6861C56.2111 25.6861 54.3911 25.0361 54.3911 24.2361C54.3911 23.4361 56.2111 22.7861 58.4511 22.7861C60.6911 22.7861 62.5111 23.4361 62.5111 24.2361Z" fill="#FBB040"></path><path opacity="0.2" d="M50.6309 96.8766C61.4109 110.037 77.7808 118.447 96.1208 118.447C128.581 118.447 154.891 92.1366 154.891 59.6766C154.891 46.3566 150.461 34.0866 142.991 24.2266C126.131 49.6666 88.7509 98.3966 50.6309 96.8766Z" fill="#212A3C"></path><path opacity="0.2" d="M55.7808 102.387C66.3108 112.327 80.4908 118.437 96.1208 118.437C128.581 118.437 154.891 92.1269 154.891 59.6669C154.891 57.7669 154.791 55.8969 154.621 54.0469C136.821 77.9469 101.801 113.217 55.7908 102.387H55.7808Z" fill="#212A3C"></path><path opacity="0.3" d="M117.121 15.2467C125.481 29.0167 116.481 49.7667 97.0212 61.5867C77.5512 73.4067 55.0012 71.8167 46.6312 58.0467C38.2712 44.2767 47.2712 23.5267 66.7312 11.7067C86.1912 -0.113315 108.751 1.47669 117.121 15.2467Z" fill="url(#paint0_linear_2570_5343)"></path><path opacity="0.3" d="M99.0512 13.7062C104.051 21.9362 97.8112 34.8462 85.1312 42.5462C72.4512 50.2462 58.1212 49.8162 53.1312 41.5962C48.1312 33.3662 54.3612 20.4562 67.0512 12.7562C79.7312 5.05621 94.0612 5.48621 99.0612 13.7062H99.0512Z" fill="white"></path><path d="M193.491 56.3762C192.741 48.9562 178.281 44.0462 156.231 42.3662C156.441 46.0462 156.421 49.7462 156.141 53.4062C160.471 55.1162 163.131 57.4062 163.421 60.3562C164.561 71.6162 130.391 82.0162 97.6808 86.0762C64.9608 90.1362 29.5708 88.3762 28.4408 77.1162C28.1708 74.4762 29.8608 71.8962 32.9908 69.4262C31.8008 66.0162 31.5009 62.0162 31.5809 58.2762C11.5809 65.1762 -0.699162 73.2262 0.0308384 80.4062C1.36084 93.5462 45.7408 98.8362 99.1608 92.1962C152.581 85.5662 194.821 69.5262 193.491 56.3762Z" fill="#FFC585"></path><defs><linearGradient id="paint0_linear_2570_5343" x1="65.8777" y1="19.8509" x2="94.1139" y2="54.7695" gradientUnits="userSpaceOnUse"><stop stop-color="white"></stop><stop offset="1" stop-color="white" stop-opacity="0"></stop></linearGradient></defs></svg> 