<?xml version="1.0" encoding="UTF-8"?> <svg xmlns="http://www.w3.org/2000/svg" width="59" height="59" viewBox="0 0 59 59" fill="none"><rect x="0.858398" y="0.489258" width="57.7139" height="57.7139" rx="14" fill="url(#paint0_linear_2571_11)"></rect><path d="M40.8754 18.1847H37.6868V16.5904C37.6868 15.7135 36.9694 14.9961 36.0925 14.9961H23.3382C22.4613 14.9961 21.7439 15.7135 21.7439 16.5904V18.1847H18.5553C16.8016 18.1847 15.3667 19.6195 15.3667 21.3733V22.9676C15.3667 27.033 18.4277 30.3491 22.3656 30.8434C23.37 33.2348 25.5223 35.0364 28.121 35.5625V40.5048H23.3382C22.4613 40.5048 21.7439 41.2222 21.7439 42.0991C21.7439 42.9759 22.4613 43.6934 23.3382 43.6934H36.0925C36.9694 43.6934 37.6868 42.9759 37.6868 42.0991C37.6868 41.2222 36.9694 40.5048 36.0925 40.5048H31.3096V35.5625C33.9083 35.0364 36.0606 33.2348 37.065 30.8434C41.0029 30.3491 44.064 27.033 44.064 22.9676V21.3733C44.064 19.6195 42.6291 18.1847 40.8754 18.1847ZM18.5553 22.9676V21.3733H21.7439V27.4635C19.8945 26.7939 18.5553 25.0401 18.5553 22.9676ZM40.8754 22.9676C40.8754 25.0401 39.5362 26.7939 37.6868 27.4635V21.3733H40.8754V22.9676Z" fill="white"></path><defs><linearGradient id="paint0_linear_2571_11" x1="6.17845" y1="53.7469" x2="63.9366" y2="4.46698" gradientUnits="userSpaceOnUse"><stop stop-color="#008CB3"></stop><stop offset="1" stop-color="#00F2FE"></stop></linearGradient></defs></svg> 