<?xml version="1.0" encoding="UTF-8"?> <svg xmlns="http://www.w3.org/2000/svg" width="182" height="174" viewBox="0 0 182 174" fill="none"><path d="M159.043 28.4926C160.329 29.4981 161.92 30.2873 162.836 31.5602C169.315 40.4829 174.457 50.0803 176.863 60.9506C178.416 67.9386 180.312 74.8757 181.407 81.94C182.871 91.3974 180.923 100.689 178.429 109.765C174.47 124.212 167.177 136.699 156.968 147.823C146.416 159.317 133.089 165.262 118.642 169.284C109.44 171.855 100.109 174.07 90.3721 173.841C69.8154 173.344 50.8115 168.227 34.3025 155.499C25.1379 148.434 17.3988 140.275 12.1164 129.685C7.20318 119.833 2.88824 109.867 1.3608 98.9455C0.317055 91.4738 0.762557 83.9257 1.67902 76.4286C3.91925 58.303 10.4491 41.8194 22.3885 28.0471C31.1585 17.9278 41.7997 9.98517 54.9102 5.53015C68.8353 0.782376 83.1295 -0.197729 97.5256 0.069572C106.372 0.235044 115.18 2.02978 123.645 4.88099C124.867 5.28831 125.91 6.19204 127.043 6.86665L127.17 6.7521C124.536 6.33205 121.913 5.92474 119.368 5.51742C117.268 7.98678 117 10.7743 117.229 13.4601C117.688 18.717 118.273 23.9866 119.291 29.1672C119.992 32.693 120.692 36.1807 117.726 38.7009C114.722 41.2594 111.323 39.9229 108.077 38.5227C103.584 36.6007 99.8166 38.6755 99.4984 43.576C99.1547 48.8966 96.6217 52.4988 92.3067 55.2736C88.9973 57.3993 85.6879 59.5631 82.6585 62.058C80.7746 63.5981 77.8216 65.5074 79.1963 68.2313C80.0619 69.9497 82.8876 70.8916 85.0132 71.6935C89.6592 73.4501 94.1143 71.4899 98.493 70.3188C103.088 69.0841 107.276 69.606 111.349 71.8335C112.24 72.3172 113.245 72.8136 113.856 73.5773C117.879 78.6815 123.53 81.6218 128.761 85.1477C133.395 88.2789 136.73 92.1739 135.89 98.3345C135.686 99.8492 135.724 101.415 135.839 102.955C136.17 107.703 138.779 109.727 143.425 108.657C145.576 108.161 147.651 107.27 149.738 106.519C157.656 103.642 169.926 107.881 172.472 116.091C171.772 115.378 171.084 114.678 170.384 113.965C164.542 108.123 156.943 103.973 147.778 108.887C146.022 109.828 143.909 110.287 141.898 110.554C137.519 111.152 134.604 108.708 134.26 104.342C134.133 102.802 134.006 101.211 134.273 99.7219C135.38 93.714 131.791 90.0609 127.794 86.6878C126.368 85.4913 124.51 84.8294 122.996 83.7221C119.852 81.4054 116.822 78.9234 113.716 76.5558C112.38 75.5376 111.031 74.4938 109.554 73.7174C105.226 71.4389 100.848 71.4389 96.1508 72.9536C91.7467 74.3792 87.1262 74.952 82.4803 73.6155C76.5233 71.8972 75.1359 67.4676 79.2218 62.8853C80.3547 61.6124 81.6657 60.4923 82.9894 59.4231C85.1151 57.692 87.368 56.1264 89.4683 54.3826C93.4396 51.0859 96.7872 47.8019 97.1309 41.8194C97.4873 35.6843 103.393 33.3295 108.93 36.2188C109.541 36.5371 110.089 36.9698 110.712 37.2244C115.473 39.1592 118.171 37.1735 117.458 32.1457C117.128 29.7782 116.313 27.487 115.969 25.1195C115.002 18.577 113.004 11.9326 117.217 5.69562C117.331 5.53015 117.064 5.09738 116.848 4.38457C101.522 -0.159544 85.777 1.81339 70.0826 2.78077C69.4207 2.81895 68.6698 2.55165 68.0843 2.75531C66.175 3.42993 64.3294 4.25729 62.2291 5.12284C62.751 6.09021 63.1327 6.81574 63.5146 7.52854C66.9386 13.7783 66.0222 17.5842 59.8997 21.1482C53.6881 24.7631 48.864 29.8418 44.5871 35.4424C40.654 40.5975 38.2483 46.3763 39.012 53.1352C39.2538 55.3372 38.9103 57.6029 39.1139 59.8177C39.5212 64.1582 37.4974 66.9075 32.0877 68.5241C29.5038 69.3005 26.678 69.2114 23.9668 69.5933C17.1316 70.5734 10.64 72.5463 5.07761 76.8104C4.37754 77.345 3.75378 78.4779 3.74105 79.3434C3.6774 85.3386 3.07923 91.4356 3.97023 97.3035C6.36321 113.1 12.1674 127.623 22.0958 140.326C34.4171 156.084 50.4805 165.694 70.0316 169.678C81.3983 171.995 92.7522 172.02 104.246 170.378C114.174 168.966 123.81 166.458 132.797 162.321C151.138 153.882 163.982 139.766 172.115 121.399C172.79 119.859 172.268 117.784 172.293 115.964C173.846 116.002 174.699 115.365 175.234 113.774C179.205 101.962 180.885 90.0736 178.785 77.5614C175.947 60.6578 170.982 44.7725 160.15 31.1401C159.578 30.4273 159.463 29.3581 159.132 28.4417L159.043 28.518V28.4926ZM4.91214 74.2901C5.40855 74.2265 5.96863 74.3156 6.36322 74.0992C13.6567 70.077 21.4084 67.7604 29.7202 66.793C36.4155 66.0165 38.0065 62.7962 37.1919 56.0628C36.4282 49.813 36.4409 43.5123 40.705 38.0772C42.5888 35.6715 44.0399 32.9094 45.8219 30.4146C49.2205 25.6541 52.9881 21.3646 58.6778 19.0989C63.4256 17.2023 64.3802 13.5619 61.6945 9.13235C61.0835 8.12679 60.3326 7.1976 59.6707 6.26841C28.3583 15.1275 6.41411 47.4709 4.91214 74.3029V74.2901Z" fill="white"></path><path d="M127.057 6.86553C128.215 7.10738 129.501 7.10738 130.519 7.61652C136.184 10.4168 141.822 13.2553 147.372 16.272C148.403 16.832 148.963 18.2449 149.74 19.2505L149.841 19.1359C145.208 16.6666 140.549 14.2227 135.942 11.7151C132.989 10.1113 130.099 8.4057 127.184 6.75098L127.057 6.86553Z" fill="white"></path><path d="M149.738 19.2649C154.397 20.7669 157.146 24.2037 159.043 28.4932L159.132 28.4168C156.039 25.3238 152.946 22.2434 149.853 19.1504L149.751 19.2649H149.738Z" fill="white"></path><path d="M53.1025 95.2792C48.9785 100.04 45.2109 105.182 40.5904 109.382C38.1083 111.648 34.2006 112.437 30.8529 113.672C26.3725 115.327 24.5777 118 25.2014 122.697C25.5705 125.433 26.8688 127.61 29.4909 128.628C32.1894 129.672 34.9769 130.461 37.7518 131.314C42.1686 132.676 46.6618 133.771 50.9896 135.362C58.0412 137.958 62.4963 143.788 67.3205 149.121C69.2679 151.272 71.2663 153.398 73.4429 155.32C76.2813 157.828 79.7181 158.731 83.4858 158.337C87.6353 157.917 89.6974 155.982 90.2192 151.909C90.3465 150.891 90.3464 149.847 90.2446 148.828C89.5954 142.401 90.461 136.278 92.9813 130.27C93.9359 128.004 93.8978 125.255 94.0123 122.722C94.1142 120.635 92.7776 119.642 90.7155 119.705C90.2064 119.718 89.6845 119.82 89.1754 119.82C83.753 119.909 82.4547 118.827 81.8564 113.621C81.2455 108.39 81.0546 103.069 79.9854 97.9267C78.5852 91.1933 72.259 87.7057 65.5892 89.4368C64.1 89.8186 62.649 90.3405 61.1724 90.7987C61.6943 90.2259 62.1271 89.2713 62.738 89.144C65.0674 88.6349 67.4604 88.0239 69.8152 88.1003C77.0451 88.3294 80.889 91.6133 82.1364 98.7541C82.9638 103.451 83.193 108.262 83.7785 112.997C84.3258 117.465 84.7459 117.771 89.2009 117.783C94.6487 117.783 97.0162 120.444 96.3289 125.853C96.1507 127.203 96.0235 128.654 95.4379 129.85C92.2303 136.38 91.9375 143.381 92.1666 150.407C92.3066 154.913 90.6519 158.197 86.6042 159.89C82.6456 161.557 78.4325 161.595 74.9449 158.757C71.3682 155.855 67.715 152.863 64.8638 149.299C58.2958 141.128 49.8313 136.533 39.7502 134.649C35.308 133.821 31.1202 132.599 27.3016 130.105C23.4576 127.597 22.7065 123.829 23.1138 119.756C23.5212 115.747 25.2396 112.119 29.6819 111.648C37.3063 110.821 41.3412 105.106 46.3308 100.549C48.4311 98.6268 50.8369 97.023 53.1025 95.2792Z" fill="white"></path><path d="M104.895 152.468C109.63 151.513 112.698 148.611 113.436 144.105C113.844 141.597 113.118 138.555 109.465 137.817C106.016 141.076 104.946 145.467 103.979 151.182C103.101 149.286 102.591 148.636 102.515 147.924C102.108 144.105 103.584 140.757 105.977 138.046C107.034 136.85 109.223 136.111 110.891 136.124C113.105 136.15 114.378 138.008 114.989 140.159C116.86 146.727 112.456 152.34 104.908 152.468H104.895Z" fill="white"></path><path d="M59.226 90.6699C58.1186 93.5848 55.4838 94.4758 52.8999 95.4559C55.0129 93.8648 57.113 92.2737 59.226 90.6699Z" fill="white"></path></svg> 