<?xml version="1.0" encoding="UTF-8"?> <svg xmlns="http://www.w3.org/2000/svg" width="21" height="21" viewBox="0 0 21 21" fill="none"><path fill-rule="evenodd" clip-rule="evenodd" d="M15.4768 20.5797C14.0368 20.5267 9.9558 19.9627 5.6818 15.6897C1.4088 11.4157 0.845804 7.33575 0.791804 5.89475C0.711805 3.69875 2.3938 1.56575 4.3368 0.732749C4.57078 0.631716 4.82701 0.593249 5.08033 0.621124C5.33366 0.648999 5.57539 0.742258 5.7818 0.891749C7.3818 2.05775 8.4858 3.82175 9.4338 5.20875C9.64239 5.51348 9.73157 5.8843 9.68436 6.25055C9.63715 6.61679 9.45685 6.95288 9.1778 7.19475L7.2268 8.64375C7.13255 8.71181 7.0662 8.81178 7.04008 8.92507C7.01396 9.03837 7.02986 9.15729 7.0848 9.25975C7.5268 10.0627 8.3128 11.2587 9.2128 12.1587C10.1128 13.0587 11.3658 13.8967 12.2248 14.3887C12.3325 14.4492 12.4593 14.4661 12.5791 14.436C12.6988 14.4058 12.8025 14.331 12.8688 14.2267L14.1388 12.2937C14.3723 11.9836 14.7167 11.7758 15.1 11.7139C15.4832 11.652 15.8756 11.7409 16.1948 11.9617C17.6018 12.9357 19.2438 14.0207 20.4458 15.5597C20.6074 15.7677 20.7102 16.0152 20.7435 16.2764C20.7767 16.5376 20.7392 16.803 20.6348 17.0447C19.7978 18.9977 17.6798 20.6607 15.4768 20.5797Z" fill="#9BACCB"></path></svg> 