<?xml version="1.0" encoding="UTF-8"?> <svg xmlns="http://www.w3.org/2000/svg" width="39" height="41" viewBox="0 0 39 41" fill="none"><path d="M11.8115 11.4658C13.1416 10.6979 14.8313 11.1503 15.5996 12.4805L20.4531 20.8867C20.3835 19.9629 20.9951 18.9723 21.7607 18.5303C22.4564 18.1288 23.9927 17.776 24.917 19.377C24.8549 18.3456 25.1381 17.6638 25.8242 17.252C26.4226 16.8932 28.0571 16.4966 28.9814 18.0977C29.1429 17.5739 29.8688 17.0516 30.3506 16.7734C35.9587 14.3556 40.6292 29.5018 38.4561 34.5088L27.6504 40.7471C22.6723 39.0471 16.8142 35.3417 12.4209 31.9287C10.4583 30.3524 10.4294 29.3056 11.1416 27.8643C11.8076 26.7066 12.9501 25.7092 15.667 27.3857L19.1172 29.6631L10.7969 15.2539C10.0288 13.9235 10.4816 12.234 11.8115 11.4658ZM18.9775 1.13867C19.326 0.794237 19.9525 0.780319 20.292 1.15332L24.4512 5.3125C24.6433 5.50762 24.7031 5.7089 24.7109 5.96191C24.7012 6.19444 24.653 6.42715 24.4512 6.6123L20.292 10.7705C20.1195 10.9534 19.8703 11.0449 19.627 11.0449C19.3838 11.0472 19.1517 10.9573 18.9775 10.7852C18.6291 10.4406 18.6262 9.81227 18.9775 9.4707L21.5625 6.88574C15.6504 6.88574 9.7383 6.88574 3.82617 6.88574L6.41113 9.4707C6.76245 9.81227 6.75958 10.4406 6.41113 10.7852C6.06271 11.1297 5.44158 11.1363 5.09668 10.7705L0.9375 6.6123C0.735659 6.42715 0.686464 6.19444 0.676758 5.96191C0.684529 5.70888 0.745377 5.50763 0.9375 5.3125L5.09668 1.15332C5.43438 0.798433 6.06268 0.794336 6.41113 1.13867C6.75972 1.48319 6.76254 2.11152 6.41113 2.45312L3.82617 5.03809H21.5625L18.9775 2.45312C18.6262 2.11152 18.629 1.48319 18.9775 1.13867Z" fill="url(#paint0_linear_2670_14)"></path><defs><linearGradient id="paint0_linear_2670_14" x1="4.20939" y1="37.6686" x2="43.8322" y2="5.17352" gradientUnits="userSpaceOnUse"><stop stop-color="#008CB3"></stop><stop offset="1" stop-color="#00F2FE"></stop></linearGradient></defs></svg> 