<?xml version="1.0" encoding="UTF-8"?> <svg xmlns="http://www.w3.org/2000/svg" width="56" height="56" viewBox="0 0 56 56" fill="none"><path d="M0.694237 53.5588C4.49792 53.4665 8.17756 53.0075 11.8979 53.2264C15.9293 53.5286 19.8977 54.4808 23.8383 55.5367C24.0457 55.5922 25.2961 50.9257 25.0128 50.7386C22.8147 49.8162 20.4296 49.1772 17.9612 48.8492C37.5969 41.1065 50.565 22.5744 55.1131 1.45275C55.6763 -1.06384 54.8223 1.70828 54.5722 2.64159C49.2685 25.3391 30.9506 41.4374 9.53165 48.3688C13.6301 44.6877 16.6101 39.3732 18.1791 34.3475C18.3736 33.6216 18.972 30.5587 18.7571 30.9457C15.6416 39.6694 9.84674 45.1189 2.34454 49.8886C1.74268 50.0607 1.24452 50.2607 0.746355 50.4606C0.379681 50.5847 0.0442489 53.4957 0.0442489 53.4957C0.25165 53.5513 0.459051 53.6069 0.694237 53.5588Z" fill="#00F2FE"></path></svg> 